<svg xmlns="http://www.w3.org/2000/svg" viewBox="0 0 509.98 624.03">
	<defs>
	</defs>
	<title>Asset 2</title>
	<g id="Layer_2" data-name="Layer 2">
		<g id="Layer_1-2" data-name="Layer 1">
			<path fill="#caaa66" d="M456.87,354.75a142.86,142.86,0,0,0-5.3-29.46,87.28,87.28,0,0,0-3.74-10.37,31.85,31.85,0,0,0-4.83-8.14,2.48,2.48,0,0,0-.32-.28l-.16-.11-.29-.19a6.43,6.43,0,0,0-.66-.36,5.22,5.22,0,0,0-.57-.23,2.93,2.93,0,0,0-.52-.13l-.44-.07c-.31,0-.59-.07-.84-.08a5.89,5.89,0,0,0-.78,0,3.75,3.75,0,0,0-.48.06l-.34.08h0c-1.37,1.24-3.44,3.15-6,5.57-2.14,2-4.62,4.43-7.31,7.07-5.92,5.82-12.82,12.84-19.24,19.88a212,212,0,0,0-15.25,18.34c-2.76,3.86-2.64,9.46-.38,15.1a35.42,35.42,0,0,0,12,15,16.65,16.65,0,0,1,3.19,2.75,3,3,0,0,1,.79,2.27,35.12,35.12,0,0,1-2.54,9.82A146.49,146.49,0,0,1,391,423a157.63,157.63,0,0,1-20.69,25,209.82,209.82,0,0,1-31.44,25.25c-13,8.7-25.76,12.05-40.65,13.4l-1.92.18c-10.14-1-17.23-4.93-22.27-10.13-9.55-9.86-11.77-24.39-13.64-33-3.3-15.22-5.84-30.79-7.79-46.55-2-16.27-3.37-32.75-4.25-49.29-1-18.56-1.36-37.19-1.36-55.68v-88.7c0-7.08,3-15,12.47-21.71a40.07,40.07,0,0,1,7.71-4.29h51.89a4.56,4.56,0,0,0,2.17,4.16,6.73,6.73,0,0,0,2.86,1,7.08,7.08,0,0,0,.75,0,7.35,7.35,0,0,0,2.34-.42,8.75,8.75,0,0,0,3.68-2.71,20.2,20.2,0,0,0,1.48-2c2.42,0,4.86.11,7.26-.05a16.53,16.53,0,0,0,7.32-2.27,16.83,16.83,0,0,0,3.3-2.56,16.39,16.39,0,0,0,1.6-1.86,16.21,16.21,0,0,0,1.1-1.68,16.4,16.4,0,0,0,1.35-3.05A19.17,19.17,0,0,0,355,158a16.52,16.52,0,0,0-1.66-5.53,16.75,16.75,0,0,0-6.39-6.83,16.53,16.53,0,0,0-7.32-2.27c-2.09-.14-4.2-.1-6.31-.07-.27-.44-.53-.87-.82-1.31a22.24,22.24,0,0,0-1.59-2.15,8.92,8.92,0,0,0-3.69-2.75,7.34,7.34,0,0,0-2.34-.42,7.43,7.43,0,0,0-.75,0,6.77,6.77,0,0,0-.86.14,6.45,6.45,0,0,0-1,.29,6.7,6.7,0,0,0-1,.52c-1.8,1.11-2.3,3.17-2.12,5.16,0,.17.06.34.08.52H268.3a36.5,36.5,0,0,0-4-1c-7-1.37-12.72-9.39-13.17-18.25a15.8,15.8,0,0,1,1.65-7.65,75.09,75.09,0,0,1,3.91-7.13l1.43-2.38c.54-.22,1.08-.45,1.61-.7,7.76-3.65,13.76-10.11,18.51-17.72a64.86,64.86,0,0,0,8-19.27,53.81,53.81,0,0,0,1.42-16.31,51.12,51.12,0,0,0-5-17.64,67.82,67.82,0,0,0-12.48-17.93,56.31,56.31,0,0,0-12.83-10A61.47,61.47,0,0,0,234.63.39c-1.37-.16-2.74-.28-4.1-.37V0a95,95,0,0,0-10,.39,61.47,61.47,0,0,0-22.73,6.88,56.26,56.26,0,0,0-12.84,10,67.8,67.8,0,0,0-12.48,17.93,51.09,51.09,0,0,0-5,17.64,53.79,53.79,0,0,0,1.42,16.31,64.9,64.9,0,0,0,8,19.27c4.75,7.62,11.14,14,18.9,17.69.59.28,1.55.34,2.17.58.42.62.85,1.22,1.27,1.79a54.78,54.78,0,0,1,3.86,5.64,20.8,20.8,0,0,1,2.58,10.1c.12,4.6-5.3,16.46-11.55,17.33a42.44,42.44,0,0,0-7.45,1.72H137.83c0-.17.06-.34.08-.52.18-2-.32-4.05-2.12-5.16a6.71,6.71,0,0,0-1-.52,6.5,6.5,0,0,0-1-.29,6.76,6.76,0,0,0-.86-.14,7.41,7.41,0,0,0-.75,0,7.33,7.33,0,0,0-2.34.42,8.9,8.9,0,0,0-3.69,2.75,22,22,0,0,0-1.6,2.15c-.3.45-.56.89-.84,1.34h-2.42a34.22,34.22,0,0,0-5.66.38,15.73,15.73,0,0,0-6.62,2.63,16.61,16.61,0,0,0-2.22,1.87,16.61,16.61,0,0,0-3.09,4.27A16.51,16.51,0,0,0,102,158a19.25,19.25,0,0,0,.7,8,16.58,16.58,0,0,0,2.45,4.73,16.74,16.74,0,0,0,3.82,3.72,15.73,15.73,0,0,0,6.62,2.63,34,34,0,0,0,5.66.38h3.38a20.62,20.62,0,0,0,1.49,2,8.76,8.76,0,0,0,3.68,2.71,7.34,7.34,0,0,0,2.34.42,7.08,7.08,0,0,0,.75,0,6.69,6.69,0,0,0,2.86-1,4.56,4.56,0,0,0,2.17-4.16h47.88c2.11.81,4.46,1.62,7.1,2.44C204.4,183.44,210,196.39,210,203.47v88.7c0,18.5.06,37-.52,55.54C209,364.2,208,380.66,205.91,397a325,325,0,0,1-9.28,47.16c-2.73,9.78-6.45,23.94-15.21,33.18a28.78,28.78,0,0,1-18.87,9.18q-1.72.16-3.56.14c-14.9-1.35-27.61-4.7-40.66-13.4A209.9,209.9,0,0,1,86.9,448a157.77,157.77,0,0,1-20.69-25,146.54,146.54,0,0,1-11.86-21.66,35.07,35.07,0,0,1-2.54-9.82,3,3,0,0,1,.79-2.27,16.68,16.68,0,0,1,3.19-2.75,35.43,35.43,0,0,0,12-15c2.26-5.64,2.39-11.23-.38-15.1A211.71,211.71,0,0,0,52.16,338c-6.43-7-13.32-14.06-19.24-19.88-2.68-2.64-5.16-5-7.3-7.07-2.54-2.41-4.61-4.33-6-5.57h0l-.34-.08a3.68,3.68,0,0,0-.48-.06,5.88,5.88,0,0,0-.78,0c-.25,0-.53,0-.84.08l-.44.07a3,3,0,0,0-.52.13,5.3,5.3,0,0,0-.57.23,6.31,6.31,0,0,0-.66.36l-.3.19-.15.11a2.44,2.44,0,0,0-.32.28,31.84,31.84,0,0,0-4.83,8.14A87.18,87.18,0,0,0,5.64,325.3a142.89,142.89,0,0,0-5.3,29.46,101.74,101.74,0,0,0,1.4,27.74,23.53,23.53,0,0,0,5,10.79A10.46,10.46,0,0,0,12.83,397c1,.14,2.67-.28,4.11-.2a2.7,2.7,0,0,1,2.64,1.59c2.58,6.18,2.62,6.41,5.31,12.82,6.7,16,12.87,29.41,18.64,40.91A326.93,326.93,0,0,0,66.06,491c9.46,13.77,18,23.2,26.64,32.41,11.22,12,28.64,28.18,50.36,39.73a250.06,250.06,0,0,0,28.89,13.06q6.33,2.4,12.59,4.42c6.55,2.13,13,4,19.45,5.61q6.14,1.57,12.18,2.9c3.81.84,5.86,4.66,12.44,4.9,6.58-.23,8.63-4.05,12.44-4.9q6.42-1.43,13-3.1c6.16-1.59,12.38-3.37,18.66-5.41,6.71-2.18,13.47-4.64,20.29-7.48,7-2.92,14.09-6.23,21.19-10,21.71-11.55,39.14-27.71,50.36-39.73,8.6-9.21,17.18-18.64,26.64-32.41a326.66,326.66,0,0,0,22.52-38.83c5.77-11.5,11.94-24.95,18.64-40.91,2.69-6.41,2.73-6.64,5.31-12.82a2.7,2.7,0,0,1,2.64-1.59c1.45-.08,3.09.34,4.11.2a10.45,10.45,0,0,0,6.13-3.76,23.51,23.51,0,0,0,5-10.79A101.8,101.8,0,0,0,456.87,354.75ZM191.4,64.47a23.92,23.92,0,0,1-1.18-9.92,40.82,40.82,0,0,1,2.9-11A31.25,31.25,0,0,1,200,33.51a39.24,39.24,0,0,1,8.47-6.21,37.1,37.1,0,0,1,14.81-4.78c1.8-.2,3.61-.21,5.64-.24h0c1,.05,1.94.13,2.87.23a37.1,37.1,0,0,1,14.81,4.78,39.24,39.24,0,0,1,8.47,6.21A31.28,31.28,0,0,1,262,43.58a40.82,40.82,0,0,1,2.9,11,23.91,23.91,0,0,1-1.18,9.92,48.21,48.21,0,0,1-5.42,11.45c-2.76,4.29-5.75,7.46-7.69,8.11a2.52,2.52,0,0,1-.43.1c-.51-.18-1.06-.36-1.67-.55l-1.65-.49-1-.28-2-.5c-2.48-.59-5.39-1.15-8.71-1.62a52.92,52.92,0,0,0-7.59-.82,31.14,31.14,0,0,0-4,.29c-1.26.16-2.47.36-3.6.52a86.55,86.55,0,0,0-13.37,2.89q-.91.28-1.67.55a2.56,2.56,0,0,1-.43-.1c-1.94-.65-4.93-3.82-7.69-8.11A48.22,48.22,0,0,1,191.4,64.47Z"/>
			<path fill="#caaa66" d="M168.92,188.26l-.68.36c.5-.38.77-.88.32-1.84a12.29,12.29,0,0,0-2.16-2.85,11.16,11.16,0,0,0-3.27-2.24,3.43,3.43,0,0,0-3.27-.28l-.15.05a1.5,1.5,0,0,0,.24-1.45,7.14,7.14,0,0,0-1.3-2.55H138a4.6,4.6,0,0,1-1.78,3.88,11.29,11.29,0,0,0,2.16,2.72c1.74,1.51,2.71,1.62,3.6,1.57a1.86,1.86,0,0,0-.05,1.29,10.71,10.71,0,0,0,2.18,4.13,20.61,20.61,0,0,0,4.05,3.61c2.07,1.39,3,1.15,4,.85-.19.3-.21.74.12,1.44a12.26,12.26,0,0,0,2.89,3.52,13.34,13.34,0,0,0,4.47,2.81c2.27.88,3.15.51,4,.09-.15.33-.11.78.29,1.46a9.68,9.68,0,0,0,3.27,3,18.91,18.91,0,0,0,4.65,2.17c2.28.57,3.1.06,3.9-.47-.11.34,0,.77.44,1.37a11.44,11.44,0,0,0,3.44,2.64,16.12,16.12,0,0,0,4.69,1.61,4.66,4.66,0,0,0,3-.22,3.11,3.11,0,0,0,.34.48,10,10,0,0,0,3.5,2.34,17.23,17.23,0,0,0,4.67,1.38c2.23.27,3-.33,3.69-.95a1.5,1.5,0,0,0,.55,1.31,10.58,10.58,0,0,0,3.51,2.21,15.73,15.73,0,0,0,4.6,1.21c2.19.2,2.92-.39,3.62-1a1.5,1.5,0,0,0,.55,1.3,10.43,10.43,0,0,0,3.46,2.15,16,16,0,0,0,4.52,1.18c2.17.19,2.86-.38,3.56-1a1.51,1.51,0,0,0,.52,1.3,10,10,0,0,0,3.36,2.18,16.92,16.92,0,0,0,4.39,1.26,3.86,3.86,0,0,0,3.34-.76,1.74,1.74,0,0,0,.47,1.09,9.51,9.51,0,0,0,3.15,2.3,16.45,16.45,0,0,0,4.2,1.47,3.86,3.86,0,0,0,3.53-.72,1.53,1.53,0,0,0,.34,1.34,9,9,0,0,0,2.89,2.47,13.35,13.35,0,0,0,3.9,1.78,3.72,3.72,0,0,0,3.48-.37,1.5,1.5,0,0,0,.16,1.35,11,11,0,0,0,2.42,2.74,16.34,16.34,0,0,0,3.45,2.17,3.57,3.57,0,0,0,3.39.09,1.45,1.45,0,0,0-.08,1.31,7.6,7.6,0,0,0,1.68,3,14,14,0,0,0,2.7,2.65,3.71,3.71,0,0,0,2.79.81,1.84,1.84,0,0,0-.24,1,10.81,10.81,0,0,0,.79,3.15,15.88,15.88,0,0,0,1.78,3.1,3.43,3.43,0,0,0,2.81,1.54,1.53,1.53,0,0,0-.79,1A6.69,6.69,0,0,0,278,266a12.76,12.76,0,0,0,.76,3.58A4,4,0,0,0,281,272a1.58,1.58,0,0,0-1,.8,9.28,9.28,0,0,0-1.05,3.2,10.09,10.09,0,0,0-.16,3.82,3.67,3.67,0,0,0,1.51,2.89,1.55,1.55,0,0,0-1.21.52,9.41,9.41,0,0,0-1.78,2.84,10,10,0,0,0-1.08,3.64,3.53,3.53,0,0,0,.58,3,1.69,1.69,0,0,0-1.08.27,10.45,10.45,0,0,0-2.46,2.39,10.89,10.89,0,0,0-1.93,3.43,3.52,3.52,0,0,0,0,3.36,1.5,1.5,0,0,0-1.33,0,10.75,10.75,0,0,0-3,2,12.17,12.17,0,0,0-2.65,3.17,3.58,3.58,0,0,0-.67,3.41,1.51,1.51,0,0,0-1.34-.23,10.58,10.58,0,0,0-3.36,1.6,13.4,13.4,0,0,0-3.19,2.89,3.77,3.77,0,0,0-1.12,3.38,1.52,1.52,0,0,0-1.33-.36,9.86,9.86,0,0,0-3.59,1.32,15.24,15.24,0,0,0-2.32,1.53q.28,11.39.83,22.77a11.39,11.39,0,0,0,2.41-.91,16.5,16.5,0,0,0,3.93-2.7c1.61-1.51,1.59-2.48,1.57-3.43,0-.28,0-.56,0-.85.11.65.45,1.13,1.68,1a11.19,11.19,0,0,0,4-1.42,16.71,16.71,0,0,0,3.81-3.06c1.52-1.68,1.46-2.58,1.35-3.56,0-.31-.08-.61-.11-.92.16.68.51,1.17,1.78.92a11.57,11.57,0,0,0,3.91-1.87A15.25,15.25,0,0,0,276,323.2c1.36-1.89,1.22-2.77,1-3.74-.07-.3-.15-.59-.21-.88.24.65.66,1.08,1.89.64a12.16,12.16,0,0,0,3.71-2.48,14.92,14.92,0,0,0,3.11-4.17c1.09-2.16.83-3,.45-3.94l-.07-.16c.33.24.8.25,1.58-.21a12.8,12.8,0,0,0,3.28-3.24,15.71,15.71,0,0,0,2.29-4.88c.69-2.4.21-3.2-.38-4-.2-.3-.42-.57-.62-.87.49.59,1,.93,2.09-.08a13.28,13.28,0,0,0,2.51-4,18.24,18.24,0,0,0,1-5.37c.13-2.51-.62-3.19-1.38-3.85-.28-.25-.56-.46-.84-.7.63.46,1.25.66,2-.58a13.2,13.2,0,0,0,1.46-4.49,18.61,18.61,0,0,0-.29-5.44c-.46-2.44-1.48-3-2.31-3.42l-.79-.4c.64.22,1.22.14,1.65-1.16a10.08,10.08,0,0,0,.18-4.82,16.65,16.65,0,0,0-1.76-5.37c-1.36-2.25-2.29-2.49-3.26-2.7h0c.31-.2.52-.61.56-1.46a12.37,12.37,0,0,0-1.33-4.68,14.82,14.82,0,0,0-3.27-4.56c-1.81-1.83-2.85-1.67-3.83-1.6l-.86.1c.65-.17,1.08-.56.73-1.87a10.35,10.35,0,0,0-2.42-4,15.36,15.36,0,0,0-4.12-3.41c-2.15-1.14-3-.86-4-.55l-.82.29c.6-.31,1-.79.36-2a12.15,12.15,0,0,0-3-3.29,14.85,14.85,0,0,0-4.45-2.46c-2.21-.79-3-.34-3.88.14l-.77.45c.55-.41.83-.93.1-2a11,11,0,0,0-3.28-2.83,17.37,17.37,0,0,0-4.55-1.85c-2.21-.48-3,.06-3.76.62l-.15.11a1.15,1.15,0,0,0-.14-1.08,10.64,10.64,0,0,0,4.35-.35,19.55,19.55,0,0,0,4.83-2c2-1.35,2.19-2.31,2.34-3.26.19.31.57.53,1.34.58a10,10,0,0,0,4.36-.95,18.31,18.31,0,0,0,4.48-2.62c1.79-1.62,1.86-2.58,1.89-3.54.22.29.64.46,1.42.41a9.65,9.65,0,0,0,4.18-1.51,16.29,16.29,0,0,0,4.1-3.2c1.58-1.84,1.54-2.8,1.43-3.75.26.25.7.36,1.46.21a10.17,10.17,0,0,0,4-2.11,14.9,14.9,0,0,0,3.65-3.81,5.05,5.05,0,0,0,1.08-3,3.29,3.29,0,0,0,.6-.16,10.36,10.36,0,0,0,3.67-2.73,14.47,14.47,0,0,0,3.09-4.45c1-2.3.7-3.21.32-4.09.33.15.77.1,1.44-.34a13.07,13.07,0,0,0,3.16-3.55,18.36,18.36,0,0,0,2.11-5.28c.55-2.57-.11-3.47-.71-4.26.36.06.79-.11,1.35-.74a9.93,9.93,0,0,0,2.06-4.27,20.06,20.06,0,0,0,.68-5.29c0-2.44-.77-3.11-1.56-3.72.36,0,.73-.25,1.12-.91a12.23,12.23,0,0,0,1.26-4.37,13.26,13.26,0,0,0-.17-5.32c-.55-2.17-1.27-2.81-2-3.26a1.85,1.85,0,0,0,.79-1,10.25,10.25,0,0,0,.63-4.53,20.09,20.09,0,0,0-1.14-5.2c-.89-2.28-1.71-2.68-2.64-3,.34-.13.61-.47.76-1.22a12.13,12.13,0,0,0-.25-4.52,14.17,14.17,0,0,0-1.84-5c-1.34-2.06-2.28-2.29-3.24-2.47.32-.18.55-.56.61-1.35a10.54,10.54,0,0,0-.82-4.46A19.86,19.86,0,0,0,300.94,98c-1.55-1.87-2.47-2-3.44-2,.29-.22.45-.63.36-1.4a11.91,11.91,0,0,0-1.59-4.19A14.61,14.61,0,0,0,293,86.21c-1.55-1.28-2.48-1.46-3.29-1.42a2.26,2.26,0,0,0,0-1.07,12,12,0,0,0-2-4,19.56,19.56,0,0,0-3.89-3.53c-2-1.34-3-1.16-3.87-.93.21-.3.25-.74,0-1.48a11.84,11.84,0,0,0-2.73-3.53,18.18,18.18,0,0,0-4.24-3.08c-2.26-.94-3.18-.6-4.07-.22.17-.32.15-.77-.24-1.45a12.21,12.21,0,0,0-3.13-3.26A17.05,17.05,0,0,0,260.73,60c-2.32-.68-3.17-.25-4,.24.12-.34,0-.79-.43-1.42a10.45,10.45,0,0,0-3.65-2.61,19.65,19.65,0,0,0-5-1.71c-2.18-.3-3,.21-3.73.77a1.76,1.76,0,0,0-.65-1.07,12.1,12.1,0,0,0-4-2.16,13.2,13.2,0,0,0-5.19-.86c-2.44.06-3.12.74-3.76,1.45,0-.36-.2-.76-.84-1.23a9.15,9.15,0,0,0-4.18-1.53,18.9,18.9,0,0,0-5.13-.12c-2.35.31-2.93,1.05-3.46,1.83,0-.36-.28-.73-1-1.12a11.55,11.55,0,0,0-4.3-.92,19,19,0,0,0-5.14.36c-2.3.55-2.79,1.48-3.23,2.34-.07-.35-.37-.68-1.08-1a11.84,11.84,0,0,0-4.42-.5,13,13,0,0,0-5.08,1.05,6.08,6.08,0,0,0-2.18,1.41c-.07.45-.16.89-.22,1.34a23.92,23.92,0,0,0,1.18,9.92,45,45,0,0,0,2.93,7.06,3.53,3.53,0,0,0,2-2.42c.07-.23.15-.44.23-.67-.07.59.1,1.12,1.05,1.47a10.74,10.74,0,0,0,3.65.56,12.22,12.22,0,0,0,4.06-.71,3.93,3.93,0,0,0,2.61-2.25l.33-.65c-.17.58-.08,1.14.86,1.68a8.86,8.86,0,0,0,3.57,1,17.2,17.2,0,0,0,4.14-.26,3.43,3.43,0,0,0,2.88-1.83l.4-.62c-.24.56-.21,1.13.67,1.75a8.74,8.74,0,0,0,3.46,1.27,19.16,19.16,0,0,0,4.05.35,3.51,3.51,0,0,0,3-1.55l.11-.13a1.41,1.41,0,0,0,.6,1.33,14,14,0,0,0,3.13,1.78,11.62,11.62,0,0,0,3.94.87,3.92,3.92,0,0,0,3.22-1.13l.53-.46c-.36.47-.48,1,.14,1.87A8.49,8.49,0,0,0,245.78,75a21.25,21.25,0,0,0,3.78,1.41,3.45,3.45,0,0,0,3.32-.55l.61-.4c-.44.42-.64.94-.12,1.84a11.13,11.13,0,0,0,2.51,2.57,11.73,11.73,0,0,0,3.5,2,3.67,3.67,0,0,0,3.45-.18l.64-.29c-.48.34-.75.83-.4,1.84a8.62,8.62,0,0,0,2,3,16.86,16.86,0,0,0,3.24,2.43,3.35,3.35,0,0,0,3.17.49,1.7,1.7,0,0,0-.07,1.22,8.32,8.32,0,0,0,1.72,3.14,11.66,11.66,0,0,0,2.74,3,3.61,3.61,0,0,0,3.33.82l.74-.12c-.58.19-1,.58-.9,1.63a8.63,8.63,0,0,0,1.08,3.46,12.58,12.58,0,0,0,2.44,3.22,3.33,3.33,0,0,0,3,1.38h.73c-.6.1-1.06.43-1.14,1.47a8.18,8.18,0,0,0,.72,3.5,12.09,12.09,0,0,0,1.73,3.62,3.62,3.62,0,0,0,2.93,1.76l.73.11c-.61,0-1.11.26-1.33,1.27a8.56,8.56,0,0,0,0,3.61,11.8,11.8,0,0,0,1.33,3.77,3.31,3.31,0,0,0,2.44,2.23l.14,0c-.39.08-.74.36-1,1a8,8,0,0,0-.43,3.5,13.69,13.69,0,0,0,.5,3.93,3.55,3.55,0,0,0,2.2,2.58l.68.34c-.6-.19-1.16-.12-1.67.77a9.42,9.42,0,0,0-1.2,3.37,11.17,11.17,0,0,0,0,4,3.48,3.48,0,0,0,1.61,2.89l.57.45c-.54-.28-1.1-.3-1.81.47a8.09,8.09,0,0,0-1.59,3.16,16.56,16.56,0,0,0-.7,3.54,3.79,3.79,0,0,0,1.11,2.95l.45.53a1.41,1.41,0,0,0-1.84,0,9.71,9.71,0,0,0-2.27,2.39,11.15,11.15,0,0,0-1.66,3.35,3.33,3.33,0,0,0-.09,2.66,2.23,2.23,0,0,0-.7.16,11.2,11.2,0,0,0-2.84,2,15.07,15.07,0,0,0-2.38,3.14,3.45,3.45,0,0,0-.39,3.34c.08.24.15.48.22.73-.27-.56-.71-.92-1.73-.68a9.29,9.29,0,0,0-3.25,1.57,18,18,0,0,0-2.94,2.79,3.56,3.56,0,0,0-.9,3.3c0,.24.06.48.09.71-.19-.57-.57-1-1.62-.89a8.66,8.66,0,0,0-3.48,1.14,16.8,16.8,0,0,0-3.34,2.38,3.63,3.63,0,0,0-1.33,3.18c0,.23,0,.47,0,.7-.11-.58-.44-1-1.5-1.11a8.66,8.66,0,0,0-3.59.7,15.48,15.48,0,0,0-3.62,1.92,3.72,3.72,0,0,0-1.73,3l0,.15a1.52,1.52,0,0,0-1.24-.82,7.56,7.56,0,0,0-2.73,0,24,24,0,0,0-.73,5.86v11.18a12.82,12.82,0,0,0-1.2-.66,16.13,16.13,0,0,0-4.56-1.47c-2.18-.29-2.9.27-3.65.88l-.66.56c.46-.49.65-1.05-.18-2a10.13,10.13,0,0,0-3.45-2.24,15.87,15.87,0,0,0-4.5-1.23c-2.15-.23-2.83.37-3.55,1l-.6.54c.41-.5.55-1.06-.26-1.92A10.41,10.41,0,0,0,221,206a15,15,0,0,0-4.43-1.14c-2.11-.18-2.79.4-3.49,1l-.58.53c.4-.49.52-1.05-.27-1.9a10.62,10.62,0,0,0-3.34-2.14,14.58,14.58,0,0,0-4.33-1.15,4,4,0,0,0-2.92.56,2.46,2.46,0,0,0-.42-.66,9.73,9.73,0,0,0-3.22-2.21,16.24,16.24,0,0,0-4.21-1.27,3.64,3.64,0,0,0-3.43.85l-.59.47c.41-.46.56-1-.12-1.88a11.09,11.09,0,0,0-3-2.33,13.1,13.1,0,0,0-4-1.52,3.8,3.8,0,0,0-3.44.65l-.61.41c.43-.42.63-1,.07-1.89a8.86,8.86,0,0,0-2.67-2.56,20.67,20.67,0,0,0-3.67-1.85A3.51,3.51,0,0,0,168.92,188.26ZM309.71,454.68a15,15,0,0,0-4.2,1.71c-1.79,1.11-2,2-2.17,2.91l-.16.76c0-.63-.21-1.15-1.34-1.37a10,10,0,0,0-4,.26,15.13,15.13,0,0,0-4.18,1.62,3.77,3.77,0,0,0-2.13,2.52,1.93,1.93,0,0,0-1-.49,9.85,9.85,0,0,0-3.92.14,15.76,15.76,0,0,0-4.18,1.49,3.71,3.71,0,0,0-2.27,2.78l-.19.72c0-.61-.16-1.13-1.24-1.41a9.71,9.71,0,0,0-3.89,0,16.18,16.18,0,0,0-4.19,1.29,3.67,3.67,0,0,0-2.37,2.65l-.23.72c.08-.61-.11-1.14-1.16-1.47a9.76,9.76,0,0,0-3.85-.25,16.11,16.11,0,0,0-4.22,1.05,3.66,3.66,0,0,0-2.5,2.49l-.27.7c.11-.6,0-1.15-1.05-1.55a10.35,10.35,0,0,0-3.79-.51,15.49,15.49,0,0,0-4.23.76,3.62,3.62,0,0,0-2.66,2.29l-.07.14c0-.4-.3-.78-1-1.11a11.12,11.12,0,0,0-3.7-.78,13.23,13.23,0,0,0-4.25.44,3.41,3.41,0,0,0-2.67,2c-.11.21-.24.41-.36.61.19-.57.13-1.12-.72-1.68a9.41,9.41,0,0,0-3.36-1.23,15.49,15.49,0,0,0-4-.2,3.69,3.69,0,0,0-3,1.61l-.47.57c.29-.53.33-1.09-.44-1.82a10.13,10.13,0,0,0-3.16-1.72,14.57,14.57,0,0,0-4-.81,3.54,3.54,0,0,0-3.21,1.14l-.51.46c.35-.48.44-1-.2-1.82a8.51,8.51,0,0,0-2.9-2.17,12.83,12.83,0,0,0-3.82-1.38,3.74,3.74,0,0,0-2.77.27,2.34,2.34,0,0,0-.29-.68,10.35,10.35,0,0,0-2.59-2.53,15.11,15.11,0,0,0-3.61-1.86,3.54,3.54,0,0,0-3.41.24l-.63.31c.47-.36.72-.86.32-1.83a8.6,8.6,0,0,0-2.2-2.86,11.79,11.79,0,0,0-3.29-2.35,3.44,3.44,0,0,0-3.36-.28l-.69.23c.53-.29.86-.75.58-1.74a8.83,8.83,0,0,0-1.71-3.15,13.81,13.81,0,0,0-2.85-2.79,3.58,3.58,0,0,0-3.25-.78l-.69.11c.55-.21.94-.61.85-1.61a10,10,0,0,0-1.12-3.34,14.94,14.94,0,0,0-2.26-3.16,3.61,3.61,0,0,0-3-1.3h-.15a1.48,1.48,0,0,0,.7-1.27,10.68,10.68,0,0,0-.42-3.4,15.53,15.53,0,0,0-1.53-3.44,3.57,3.57,0,0,0-2.67-1.84l-.7-.16c.6,0,1.13-.17,1.48-1.1a10.69,10.69,0,0,0,.4-3.29,15.12,15.12,0,0,0-.63-3.58,3.55,3.55,0,0,0-2.11-2.39l-.65-.34a1.39,1.39,0,0,0,1.73-.66,10.24,10.24,0,0,0,1.25-3,15.05,15.05,0,0,0,.35-3.57,3.62,3.62,0,0,0-1.39-2.86l-.51-.48a1.39,1.39,0,0,0,1.82-.19,10.65,10.65,0,0,0,2-2.6A17.35,17.35,0,0,0,166.9,400a3.65,3.65,0,0,0-.61-3.2l0-.05a1.59,1.59,0,0,0,1.39-.1,8.44,8.44,0,0,0,2.6-2.15,12.39,12.39,0,0,0,2.09-3,3.41,3.41,0,0,0,.17-3.28c-.07-.21-.13-.43-.2-.64.28.5.74.81,1.72.6a8.62,8.62,0,0,0,3.12-1.6,13.07,13.07,0,0,0,2.88-2.8,3.51,3.51,0,0,0,.88-3.3c0-.24-.06-.48-.1-.72.2.57.58,1,1.64.88a8.82,8.82,0,0,0,3.48-1.25,13.16,13.16,0,0,0,3.37-2.54,3.63,3.63,0,0,0,1.33-3.24c0-.24,0-.49,0-.74.13.6.48,1,1.56,1a9.78,9.78,0,0,0,3.7-1,15.22,15.22,0,0,0,3.68-2.35,3.77,3.77,0,0,0,1.6-3.19c0-.05,0-.1,0-.16.19.35.58.59,1.37.62a10.18,10.18,0,0,0,3.82-.85,16.52,16.52,0,0,0,2.36-1.2q.52-9,.8-18c0-1.59.07-3.18.11-4.77a14.62,14.62,0,0,0-1.85.59,16.31,16.31,0,0,0-4.12,2.33c-1.56,1.26-1.8,2.14-1.88,3a1.76,1.76,0,0,0-1.15-.37,10.28,10.28,0,0,0-4.05.95,16.14,16.14,0,0,0-4.18,2.47c-1.72,1.44-1.81,2.4-1.85,3.35a1.51,1.51,0,0,0-1.35-.48A10.22,10.22,0,0,0,185.1,356a15.89,15.89,0,0,0-4.14,2.77c-1.68,1.6-1.72,2.54-1.7,3.5-.23-.28-.64-.43-1.4-.36a10.77,10.77,0,0,0-4.08,1.54,16.92,16.92,0,0,0-4,3.24c-1.56,1.84-1.51,2.8-1.4,3.74-.26-.25-.7-.35-1.46-.18a12.19,12.19,0,0,0-4,2.17,18.93,18.93,0,0,0-3.64,4c-1.16,1.94-1.13,2.91-.93,3.75a2,2,0,0,0-1.23.21,13,13,0,0,0-3.62,3.14,19.84,19.84,0,0,0-2.75,4.81c-.81,2.44-.36,3.35.11,4.21-.34-.12-.79,0-1.44.47a10.68,10.68,0,0,0-2.78,3.91,15.84,15.84,0,0,0-1.56,5.46c-.28,2.6.47,3.4,1.15,4.11-.36,0-.77.17-1.28.85a10.36,10.36,0,0,0-1.66,4.56,15.77,15.77,0,0,0,0,5.72c.44,2.59,1.37,3.14,2.21,3.64-.36.07-.7.38-1,1.16a10.55,10.55,0,0,0-.39,4.8,16,16,0,0,0,1.44,5.44c1,2.12,1.91,2.56,2.77,2.82a1.85,1.85,0,0,0-.5,1.2,10.45,10.45,0,0,0,.72,4.66,15.79,15.79,0,0,0,2.57,4.85c1.53,2,2.57,2.06,3.54,2.11-.29.22-.46.64-.4,1.44a10.23,10.23,0,0,0,1.6,4.33,15.37,15.37,0,0,0,3.38,4.17c1.86,1.63,2.86,1.53,3.82,1.39-.25.27-.34.71-.14,1.47a10.45,10.45,0,0,0,2.27,3.93,15.79,15.79,0,0,0,4,3.49c2.1,1.24,3,1,3.95.76-.19.3-.21.74.1,1.45a11.54,11.54,0,0,0,2.81,3.52,18.36,18.36,0,0,0,4.41,2.84,5.06,5.06,0,0,0,3.12.46,3.33,3.33,0,0,0,.26.55,10.37,10.37,0,0,0,3.25,3.09,15.42,15.42,0,0,0,4.73,2.23c2.32.65,3.17.16,4-.37-.11.34,0,.77.48,1.37a10.69,10.69,0,0,0,3.65,2.62,16.9,16.9,0,0,0,5,1.54c2.42.26,3.18-.32,3.91-.95-.06.36.1.78.66,1.33a12,12,0,0,0,4,2,17.13,17.13,0,0,0,5.21.8c2.43,0,3.12-.8,3.74-1.53,0,.36.21.75.86,1.2a10,10,0,0,0,4.29,1.43,15.23,15.23,0,0,0,5.31,0c2.18-.42,2.86-1.08,3.32-1.82a1.74,1.74,0,0,0,.92.81,11.28,11.28,0,0,0,4.24.81,15,15,0,0,0,5-.61c2.21-.67,2.67-1.5,3.09-2.35.08.35.38.68,1.07,1a11.15,11.15,0,0,0,4.26.46,15,15,0,0,0,4.88-1c2.14-.84,2.54-1.7,2.88-2.58.11.35.42.66,1.14.9a10.55,10.55,0,0,0,4.24.18,15.44,15.44,0,0,0,4.76-1.27c2.06-1,2.4-1.85,2.69-2.75.13.34.46.63,1.18.82a10.16,10.16,0,0,0,4.21,0,16,16,0,0,0,4.65-1.5,4.3,4.3,0,0,0,2.34-2.26,2.26,2.26,0,0,0,.82.34,10.1,10.1,0,0,0,4.18-.19,17,17,0,0,0,4.54-1.65c1.93-1.12,2.19-2,2.4-2.94.15.33.5.59,1.22.73a10.27,10.27,0,0,0,4.13-.29,16.63,16.63,0,0,0,4.45-1.75c1.9-1.15,2.13-2.06,2.32-3,.16.33.5.59,1.22.72a10.35,10.35,0,0,0,4.1-.35,16.35,16.35,0,0,0,4.38-1.79c1.86-1.15,2.08-2.05,2.26-3a1.51,1.51,0,0,0,1.22.71,10.35,10.35,0,0,0,4.06-.35,16,16,0,0,0,4.33-1.76c1.68-1,2-1.86,2.2-2.69a1.75,1.75,0,0,0,1.07.53,10,10,0,0,0,4-.3A15.55,15.55,0,0,0,345,463c1.85-1.1,2.09-2,2.29-2.9a1.51,1.51,0,0,0,1.18.75,9.85,9.85,0,0,0,4-.18,15.47,15.47,0,0,0,4.31-1.51c1.86-1,2.13-1.91,2.36-2.81a1.51,1.51,0,0,0,1.14.81h.07c3.38-2.88,6.73-5.92,10-9.15a162.19,162.19,0,0,0,13.82-15.51,16.76,16.76,0,0,0-4.38.85c-2.1.77-2.46,1.65-2.83,2.54l-.3.76c.15-.63,0-1.2-1.14-1.58a10.22,10.22,0,0,0-4.21-.26,16.66,16.66,0,0,0-4.64,1.22c-2,.91-2.31,1.8-2.62,2.71l-.25.79c.11-.64-.06-1.2-1.24-1.52a10.27,10.27,0,0,0-4.17,0,16.28,16.28,0,0,0-4.51,1.46c-2,1-2.2,1.91-2.44,2.83l-.21.83c.08-.66-.09-1.22-1.3-1.49a10.35,10.35,0,0,0-4.12.16,15.87,15.87,0,0,0-4.39,1.63c-1.89,1.07-2.1,2-2.31,2.9l0,.17c-.12-.39-.47-.7-1.28-.86a10.45,10.45,0,0,0-4.08.27,15.53,15.53,0,0,0-4.3,1.72c-1.84,1.11-2,2-2.22,2.93l-.15.78c0-.64-.2-1.16-1.36-1.37a10.39,10.39,0,0,0-4,.33,15.25,15.25,0,0,0-4.23,1.75c-1.81,1.12-2,2-2.18,2.93l-.15.78c0-.64-.21-1.16-1.36-1.37A10.16,10.16,0,0,0,309.71,454.68ZM508.3,532.1a10.36,10.36,0,0,0,1.44-4.25,13.83,13.83,0,0,0,0-5.18c-.44-2.36-1.2-2.87-2-3.38l-.17-.09c.41,0,.8-.26,1.16-1.07a12.22,12.22,0,0,0,.74-4.42,16.7,16.7,0,0,0-.88-5.06c-.74-2.25-1.68-2.6-2.57-3l-.83-.32c.66.16,1.25.05,1.6-1.2a10.63,10.63,0,0,0,.06-4.44,18.45,18.45,0,0,0-1.58-4.82c-1.12-2-2.05-2.28-3-2.52l-.87-.2c.68.07,1.25-.12,1.44-1.41a9,9,0,0,0-.61-4.39,19.56,19.56,0,0,0-2.43-4.67c-1.43-2-2.33-2.09-3.28-2.18l-1,0c.75,0,1.33-.28,1.2-1.65a12.33,12.33,0,0,0-1.52-4.26,14.91,14.91,0,0,0-3.13-4.19c-1.88-1.54-2.82-1.46-3.8-1.34h-.08c.27-.27.38-.71.19-1.52a12.62,12.62,0,0,0-2.1-4,16.6,16.6,0,0,0-3.91-3.37c-2-1.25-2.92-1-3.85-.77l-.77.22c.57-.28.92-.74.46-1.94a10.08,10.08,0,0,0-2.8-3.42,18.54,18.54,0,0,0-4.25-2.82,3.81,3.81,0,0,0-3.91-.09l-.83.41c.59-.38.92-.88.23-2a11.91,11.91,0,0,0-3.16-3,12.08,12.08,0,0,0-4.54-2.13c-2.26-.56-3.05-.09-3.86.44l-.74.49c.52-.44.76-1,0-2a9.9,9.9,0,0,0-3.45-2.65,17.74,17.74,0,0,0-4.73-1.49c-2.27-.35-3,.2-3.74.8l-.14.11c.13-.39,0-.85-.56-1.5a11.4,11.4,0,0,0-3.72-2.15,14.14,14.14,0,0,0-4.83-1.06c-2.3-.06-3,.57-3.64,1.26l-.58.61c.39-.53.49-1.11-.47-1.93a9.93,9.93,0,0,0-3.94-1.77c-.44-.11-.9-.21-1.36-.29-3.14,6.91-6.16,13.25-9.08,19.09l.54,0a3.77,3.77,0,0,0,3.12-1.71,1.51,1.51,0,0,0,.69,1.18,9,9,0,0,0,3.42,1.62,19.44,19.44,0,0,0,4.27.62,3.72,3.72,0,0,0,3.1-1.16,1.66,1.66,0,0,0,.56,1,9.88,9.88,0,0,0,3.23,2,18.34,18.34,0,0,0,4.19,1.06,3.62,3.62,0,0,0,3.39-.93,1.51,1.51,0,0,0,.42,1.3,8.75,8.75,0,0,0,3,2.2,14.88,14.88,0,0,0,4,1.59,3.75,3.75,0,0,0,3.49-.63,1.43,1.43,0,0,0,.27,1.32,12.05,12.05,0,0,0,2.63,2.64,12.85,12.85,0,0,0,3.75,1.95c1.92.54,2.67.25,3.47-.16a1.58,1.58,0,0,0,.06,1.37,8.48,8.48,0,0,0,2.23,2.91,26.77,26.77,0,0,0,3.35,2.42,3.51,3.51,0,0,0,3.1.46,1.73,1.73,0,0,0,0,1.08,9.86,9.86,0,0,0,1.77,3.11,11.58,11.58,0,0,0,2.77,3,3.78,3.78,0,0,0,3.39.81,1.53,1.53,0,0,0-.39,1.29,8.17,8.17,0,0,0,1,3.44,12.27,12.27,0,0,0,2.36,3.25,3.31,3.31,0,0,0,2.94,1.52,1.53,1.53,0,0,0-.64,1.19,7.65,7.65,0,0,0,.49,3.47,18,18,0,0,0,1.66,3.84,3.89,3.89,0,0,0,2.83,2.07,1.54,1.54,0,0,0-.81,1.1,8.51,8.51,0,0,0,0,3.68,13.29,13.29,0,0,0,1.07,4,3.87,3.87,0,0,0,2.23,2.33,1.74,1.74,0,0,0-.74.88,9.68,9.68,0,0,0-.61,3.57,12.39,12.39,0,0,0,.47,4.08,3.53,3.53,0,0,0,2,2.75,1.48,1.48,0,0,0-1.08.79,10.24,10.24,0,0,0-1.23,3.38,18.86,18.86,0,0,0-.25,4.06,3.76,3.76,0,0,0,1.59,3.06,1.55,1.55,0,0,0-1.24.58,8.43,8.43,0,0,0-1.76,3.12,11.86,11.86,0,0,0-.95,4,3.55,3.55,0,0,0,1,3.27,1.47,1.47,0,0,0-1.28.37,10,10,0,0,0-2.32,2.79,17.54,17.54,0,0,0-1.62,3.79,4.16,4.16,0,0,0,0,2.64,2.7,2.7,0,0,0-.5.2,8.37,8.37,0,0,0-2.69,2.46,12.79,12.79,0,0,0-2.18,3.57,3.67,3.67,0,0,0-.08,3.47,1.5,1.5,0,0,0-1.35,0,10.29,10.29,0,0,0-3.06,2.07,18,18,0,0,0-2.68,3.28,3.81,3.81,0,0,0-.52,3.5,1.53,1.53,0,0,0-1.37-.2,9,9,0,0,0-3.32,1.72,13.19,13.19,0,0,0-3.1,3,3.67,3.67,0,0,0-1,3.38,1.49,1.49,0,0,0-1.32-.32,10.22,10.22,0,0,0-3.54,1.33,17.45,17.45,0,0,0-3.44,2.62,3.82,3.82,0,0,0-1.34,3,1.76,1.76,0,0,0-1.13-.32,9,9,0,0,0-3.65,1,13.71,13.71,0,0,0-3.71,2.27,3.73,3.73,0,0,0-1.68,3.13,1.5,1.5,0,0,0-1.24-.59,10.31,10.31,0,0,0-3.75.6,17.4,17.4,0,0,0-3.92,1.9,3.82,3.82,0,0,0-2,3,1.52,1.52,0,0,0-1.18-.73,9.2,9.2,0,0,0-3.79.25,13.63,13.63,0,0,0-4.07,1.5,3.69,3.69,0,0,0-2.26,2.72,1.47,1.47,0,0,0-1.09-.81,10.06,10.06,0,0,0-3.79-.16,17.08,17.08,0,0,0-4.12,1,3.81,3.81,0,0,0-2.34,2.14,1.88,1.88,0,0,0-.84-.67,8.63,8.63,0,0,0-3.66-.62,14.58,14.58,0,0,0-4.22.49,3.92,3.92,0,0,0-2.81,2.12,1.53,1.53,0,0,0-.85-1.06,9.81,9.81,0,0,0-3.61-1.06,13.48,13.48,0,0,0-4.32,0,3.7,3.7,0,0,0-3.08,1.78,1.49,1.49,0,0,0-.75-1.15,10.72,10.72,0,0,0-3.54-1.44,16.38,16.38,0,0,0-4.38-.41,3.76,3.76,0,0,0-3.26,1.51,1.48,1.48,0,0,0-.66-1.2,10,10,0,0,0-3.46-1.75,17.44,17.44,0,0,0-4.4-.76,3.82,3.82,0,0,0-3.21,1.1,1.69,1.69,0,0,0-.58-1,9.58,9.58,0,0,0-3.39-2,17,17,0,0,0-4.4-1,3.86,3.86,0,0,0-3.49,1.09,1.52,1.52,0,0,0-.52-1.29A9.78,9.78,0,0,0,345,595.2a16.6,16.6,0,0,0-4.39-1.25,3.89,3.89,0,0,0-3.57.93,1.52,1.52,0,0,0-.48-1.32,9.94,9.94,0,0,0-3.27-2.29,16.3,16.3,0,0,0-4.39-1.41c-2.12-.31-2.88.23-3.61.81a1.51,1.51,0,0,0-.45-1.33,10.06,10.06,0,0,0-3.24-2.38,16.13,16.13,0,0,0-4.39-1.53,4.43,4.43,0,0,0-2.86.23,2.93,2.93,0,0,0-.3-.48,10.13,10.13,0,0,0-3.23-2.44,16.22,16.22,0,0,0-4.4-1.59c-2.13-.4-2.91.12-3.67.68a1.5,1.5,0,0,0-.42-1.34A10.26,10.26,0,0,0,299.1,578a16.19,16.19,0,0,0-4.43-1.62c-2.15-.41-2.93.11-3.69.67a1.51,1.51,0,0,0-.43-1.35,10.4,10.4,0,0,0-3.27-2.48,16.34,16.34,0,0,0-4.47-1.61c-2.17-.4-2.95.13-3.7.69a1.5,1.5,0,0,0-.45-1.34,10.54,10.54,0,0,0-3.32-2.46,16.69,16.69,0,0,0-4.54-1.55c-2-.33-2.81.09-3.51.6a1.75,1.75,0,0,0-.5-1.1,10.42,10.42,0,0,0-3.42-2.39,17.08,17.08,0,0,0-4.63-1.44c-2.23-.29-3,.27-3.73.88a1.51,1.51,0,0,0-.54-1.32,10.06,10.06,0,0,0-3.56-2.26,16.16,16.16,0,0,0-4.75-1.25c-2.29-.19-3,.41-3.72,1.06.06-.36-.09-.77-.62-1.3a10.72,10.72,0,0,0-3.76-2,14.61,14.61,0,0,0-4.83-.9c-2.26,0-2.95.63-3.61,1.31,0-.36-.13-.76-.68-1.25a10.83,10.83,0,0,0-3.76-1.87,16.79,16.79,0,0,0-4.79-.8c-2,.08-2.75.62-3.34,1.24a1.81,1.81,0,0,0-.7-.92,10.76,10.76,0,0,0-3.85-1.67,17.29,17.29,0,0,0-4.84-.57c-2.24.09-2.88.79-3.48,1.54,0-.36-.2-.74-.79-1.17a10.75,10.75,0,0,0-3.94-1.47,17.36,17.36,0,0,0-4.88-.31c-2.25.22-2.85.94-3.41,1.69,0-.36-.23-.75-.84-1.18a10.18,10.18,0,0,0-4-1.26,17.47,17.47,0,0,0-4.9,0c-2.24.34-2.81,1.09-3.33,1.87,0-.36-.27-.73-.9-1.12a9.1,9.1,0,0,0-4.07-1.13,17.57,17.57,0,0,0-4.9.24c-2,.43-2.63,1.11-3.09,1.84a1.79,1.79,0,0,0-.89-.85,10.59,10.59,0,0,0-4.13-1,17.57,17.57,0,0,0-4.89.53c-2.2.6-2.68,1.41-3.12,2.25-.07-.36-.34-.69-1-1a11.05,11.05,0,0,0-4.19-.76,14.78,14.78,0,0,0-4.86.77c-2.17.73-2.6,1.58-3,2.44-.08-.35-.38-.68-1.07-1a11,11,0,0,0-4.22-.51,13.35,13.35,0,0,0-4.82,1c-2.11.86-2.51,1.73-2.85,2.61-.11-.35-.42-.65-1.12-.88a11,11,0,0,0-4.24-.25,13.82,13.82,0,0,0-4.76,1.22,4.75,4.75,0,0,0-2.33,1.91,3,3,0,0,0-.54-.2,11,11,0,0,0-4.24,0,17.5,17.5,0,0,0-4.71,1.41c-2,1.05-2.3,2-2.55,2.91-.14-.33-.48-.6-1.21-.75a10.88,10.88,0,0,0-4.22.25,17.61,17.61,0,0,0-4.61,1.69c-2,1.09-2.21,2.07-2.4,3-.16-.33-.51-.58-1.25-.69a10.86,10.86,0,0,0-4.19.5,17.45,17.45,0,0,0-4.5,2c-1.9,1.23-2.12,2.12-2.26,3.06-.18-.31-.54-.54-1.27-.61a10.78,10.78,0,0,0-4.14.73,17.44,17.44,0,0,0-4.37,2.21c-1.66,1.2-1.94,2.08-2.06,2.92a1.83,1.83,0,0,0-1.17-.41,9.83,9.83,0,0,0-4.1.92,17.37,17.37,0,0,0-4.24,2.44c-1.75,1.42-1.87,2.36-1.92,3.3a1.55,1.55,0,0,0-1.34-.52,9.34,9.34,0,0,0-4.08,1.06,17.28,17.28,0,0,0-4.1,2.65c-1.68,1.52-1.74,2.46-1.75,3.41A1.52,1.52,0,0,0,41,587.8,11,11,0,0,0,36.92,589a16.44,16.44,0,0,0-4,2.84c-1.6,1.59-1.62,2.54-1.59,3.48a1.51,1.51,0,0,0-1.37-.38,10.83,10.83,0,0,0-4,1.38,13.71,13.71,0,0,0-3.88,2.93c-1.74,1.91-1.46,2.87-1.4,4l.7,8,1,8.26c.12.92.27,1.76,1.82,1.6a9.86,9.86,0,0,0,3.67-1.38,14.28,14.28,0,0,0,3.46-2.78,3.77,3.77,0,0,0,1.22-3.39c0-.26,0-.51-.06-.77.16.61.52,1,1.64.94a11.11,11.11,0,0,0,3.71-1.24,14.19,14.19,0,0,0,3.57-2.6,3.73,3.73,0,0,0,1.36-3.32l0-.77c.13.61.48,1.06,1.6,1a10.78,10.78,0,0,0,3.72-1.15,14.16,14.16,0,0,0,3.69-2.41A3.69,3.69,0,0,0,53.3,600c0-.25,0-.5,0-.75.11.61.44,1.06,1.55,1.07a9.6,9.6,0,0,0,3.75-1A17.52,17.52,0,0,0,62.37,597,3.65,3.65,0,0,0,64,593.89c0-.05,0-.11,0-.16.19.36.57.61,1.36.66a9.63,9.63,0,0,0,3.79-.79A18.46,18.46,0,0,0,73,591.44a3.6,3.6,0,0,0,1.81-3l.08-.74c0,.61.34,1.09,1.44,1.22a9.61,9.61,0,0,0,3.83-.58,14.19,14.19,0,0,0,3.91-2,3.57,3.57,0,0,0,2-2.92l.12-.74c0,.62.28,1.12,1.38,1.31a9.66,9.66,0,0,0,3.86-.36,14,14,0,0,0,4-1.77c1.7-1.15,1.93-1.92,2.1-2.86l.16-.72c0,.61.22,1.12,1.31,1.37a9.62,9.62,0,0,0,3.87-.13,13.9,13.9,0,0,0,4.1-1.53,4.06,4.06,0,0,0,2-2.14,2.55,2.55,0,0,0,.71.32,9.73,9.73,0,0,0,3.88.1,13.86,13.86,0,0,0,4.18-1.28,3.76,3.76,0,0,0,2.37-2.69c.07-.24.15-.47.23-.71-.08.61.11,1.14,1.15,1.46a10,10,0,0,0,3.87.32,13.84,13.84,0,0,0,4.25-1,3.74,3.74,0,0,0,2.52-2.54l.27-.73c-.12.62,0,1.17,1.06,1.56a11.87,11.87,0,0,0,3.84.49,13.9,13.9,0,0,0,4.3-.76A3.72,3.72,0,0,0,144.3,568l.31-.7c-.15.61,0,1.16,1,1.61a11.69,11.69,0,0,0,3.8.66,13.87,13.87,0,0,0,4.34-.5,3.69,3.69,0,0,0,2.79-2.21l.08-.15c0,.4.27.79,1,1.15a9.46,9.46,0,0,0,3.76.8,14,14,0,0,0,4.37-.24,3.66,3.66,0,0,0,2.91-2l.38-.64c-.21.58-.15,1.14.81,1.7a9.47,9.47,0,0,0,3.72,1,18.34,18.34,0,0,0,4.38-.07,3.64,3.64,0,0,0,3-1.87l.42-.63c-.24.57-.22,1.13.71,1.75a9.58,9.58,0,0,0,3.67,1.23,18.42,18.42,0,0,0,4.39.09,3.61,3.61,0,0,0,3.11-1.7l.44-.6c-.27.55-.26,1.12.63,1.78a9.67,9.67,0,0,0,3.61,1.44,14.1,14.1,0,0,0,4.4.25c2-.17,2.61-.81,3.19-1.56l0-.06a1.54,1.54,0,0,0,.73,1.26,9.79,9.79,0,0,0,3.54,1.63,14.14,14.14,0,0,0,4.39.49,3.8,3.8,0,0,0,3.27-1.52l.5-.56c-.32.52-.37,1.09.47,1.85a9.87,9.87,0,0,0,3.47,1.82,14.21,14.21,0,0,0,4.37.72,3.75,3.75,0,0,0,3.33-1.36l.54-.58c-.36.53-.44,1.09.38,1.86a11.35,11.35,0,0,0,3.35,1.88,15.57,15.57,0,0,0,4.22.91,3.67,3.67,0,0,0,3.36-1.14l.53-.49c-.35.49-.44,1,.29,1.84a9.59,9.59,0,0,0,3.24,2.12,15.32,15.32,0,0,0,4.24,1.18,3.76,3.76,0,0,0,3.45-1l.13-.11c-.14.38-.06.83.45,1.45a9.81,9.81,0,0,0,3.19,2.26,14.73,14.73,0,0,0,4.25,1.37,3.78,3.78,0,0,0,3.51-.82l.61-.47c-.42.46-.58,1,.13,1.9a10.11,10.11,0,0,0,3.17,2.37,14.83,14.83,0,0,0,4.26,1.48c2.07.35,2.8-.16,3.55-.74l.63-.48c-.44.46-.62,1,.09,1.92A10.22,10.22,0,0,0,280.3,592a15,15,0,0,0,4.27,1.54c2.08.39,2.82-.13,3.58-.7l.63-.47c-.44.45-.63,1,.08,1.92a10.21,10.21,0,0,0,3.17,2.46,15.31,15.31,0,0,0,4.3,1.57,4,4,0,0,0,3-.3,2.52,2.52,0,0,0,.39.69,10.25,10.25,0,0,0,3.21,2.46,15.44,15.44,0,0,0,4.34,1.55c2.11.38,2.85-.15,3.61-.73l.64-.49c-.45.46-.63,1,.11,1.94a10.17,10.17,0,0,0,3.27,2.42,15.66,15.66,0,0,0,4.4,1.49c2.14.34,2.87-.2,3.62-.79l.67-.53c-.46.48-.66,1,.13,2a10.13,10.13,0,0,0,3.36,2.35,16,16,0,0,0,4.47,1.38c2.17.27,2.88-.29,3.62-.9l.65-.56c-.45.49-.63,1.05.19,2a10,10,0,0,0,3.47,2.24,15.67,15.67,0,0,0,4.56,1.22c2.2.19,2.89-.4,3.6-1l.13-.12c-.12.39,0,.84.58,1.44A10,10,0,0,0,352,618a15.23,15.23,0,0,0,4.67,1c2.23.07,2.89-.55,3.57-1.23l.58-.59c-.38.53-.49,1.1.42,1.92A10.28,10.28,0,0,0,365,621a14.56,14.56,0,0,0,4.78.7c2.25-.07,2.87-.74,3.5-1.46l.59-.69c-.38.57-.5,1.17.52,1.95a11.31,11.31,0,0,0,4,1.57,14.66,14.66,0,0,0,4.9.29c2.26-.25,2.82-1,3.39-1.75l.5-.71c-.31.59-.34,1.18.74,1.83a11.53,11.53,0,0,0,4.14,1.22,16.86,16.86,0,0,0,5-.23c2.25-.44,2.74-1.32,3.22-2.14h0c.07.36.35.7,1,1a10.54,10.54,0,0,0,4.31.73,18.19,18.19,0,0,0,5-.8c2.2-.81,2.58-1.67,3-2.57.12-.27.21-.54.33-.82-.17.65-.06,1.24,1.17,1.63a10.13,10.13,0,0,0,4.35.15,14.56,14.56,0,0,0,4.74-1.41c2-1,2.33-1.88,2.59-2.82.08-.28.15-.57.22-.85-.09.67.08,1.24,1.33,1.47a11.2,11.2,0,0,0,4.29-.28,17.51,17.51,0,0,0,4.55-1.87c1.92-1.25,2.11-2.15,2.27-3.1.05-.29.09-.58.14-.87,0,.68.19,1.23,1.47,1.36a10.39,10.39,0,0,0,4.22-.72,14.56,14.56,0,0,0,4.34-2.31c1.8-1.4,1.91-2.29,2-3.27,0-.06,0-.12,0-.18.19.36.58.61,1.44.6a11.15,11.15,0,0,0,4.16-1.11,17.51,17.51,0,0,0,4.11-2.73c1.64-1.59,1.64-2.53,1.63-3.49,0-.28,0-.56,0-.84.11.65.45,1.12,1.71,1a10.28,10.28,0,0,0,4-1.56,14.4,14.4,0,0,0,3.82-3.17c1.48-1.76,1.41-2.65,1.28-3.62,0-.3-.09-.59-.13-.89.18.66.56,1.12,1.81.83a11.35,11.35,0,0,0,3.85-2,17.87,17.87,0,0,0,3.46-3.61c1.27-2,1.07-2.87.83-3.8-.07-.3-.16-.59-.23-.88.25.64.68,1.07,1.92.64a10.37,10.37,0,0,0,3.58-2.51,14.43,14.43,0,0,0,3-4.07,4.3,4.3,0,0,0,.62-3.2,2.61,2.61,0,0,0,.78-.28,12,12,0,0,0,3.28-3,17.58,17.58,0,0,0,2.46-4.48c.76-2.24.28-3.1-.18-3.94-.15-.27-.31-.52-.46-.78.41.55.94.83,2,.07a10.12,10.12,0,0,0,2.79-3.49,14.19,14.19,0,0,0,1.74-4.86c.38-2.36-.14-3.1-.76-3.87-.2-.25-.42-.49-.62-.74.51.51,1.09.74,2-.25a11.81,11.81,0,0,0,2.2-3.93,19,19,0,0,0,.89-5.12c-.06-2.41-.76-3.06-1.49-3.7-.24-.22-.5-.42-.74-.63C506.9,533.1,507.5,533.24,508.3,532.1ZM124.45,133.44a2,2,0,0,0-.85.91,11.13,11.13,0,0,0-.79,4.39,20.22,20.22,0,0,0,.41,4.54h.48c.28-.45.54-.89.84-1.34a22,22,0,0,1,1.6-2.15,8.9,8.9,0,0,1,3.69-2.75,7.33,7.33,0,0,1,2.34-.42,7.41,7.41,0,0,1,.75,0,6.76,6.76,0,0,1,.86.14,6.5,6.5,0,0,1,1,.29,6.71,6.71,0,0,1,1,.52c1.8,1.11,2.3,3.17,2.12,5.16,0,.17-.06.34-.08.52h4.89a3.2,3.2,0,0,0-1.78-1.46l-.07,0a1.58,1.58,0,0,0,1.08-.94,8.5,8.5,0,0,0,.83-3.52,20,20,0,0,0-.36-4,3.36,3.36,0,0,0-1.86-2.75l-.59-.37c.56.21,1.11.17,1.72-.65a8,8,0,0,0,1.21-3.32,12.15,12.15,0,0,0,.48-3.92,3.58,3.58,0,0,0-1.52-3l-.58-.5a1.28,1.28,0,0,0,1.81-.34,10.2,10.2,0,0,0,2-2.94,10.9,10.9,0,0,0,1-3.8c.15-1.84-.24-2.46-.86-3.18l-.42-.55c.44.39,1,.54,1.85,0a7.84,7.84,0,0,0,2.33-2.58,21.27,21.27,0,0,0,1.76-3.47,3.47,3.47,0,0,0-.32-3.32l-.08-.15a1.4,1.4,0,0,0,1.44,0,13,13,0,0,0,2.85-2.05,10.84,10.84,0,0,0,2.29-3.17c.73-1.72.66-2.4.33-3.3-.07-.21-.13-.44-.19-.66.27.52.72.86,1.73.66a8,8,0,0,0,3.14-1.58,23,23,0,0,0,2.9-2.67,3.49,3.49,0,0,0,.91-3.23c0-.25-.07-.5-.1-.75.18.6.55,1,1.58,1a13.32,13.32,0,0,0,3.42-1,12.5,12.5,0,0,0,2.11-1.22,65.47,65.47,0,0,1-3.78-11.28,58.93,58.93,0,0,1-1.38-8.74l-.45.29c-2,1.42-2,2.51-2.1,3.48-.21-.3-.61-.48-1.4-.44a12.31,12.31,0,0,0-4.34,1.38A13,13,0,0,0,155,68.32c-1.66,1.83-1.64,2.79-1.56,3.75-.26-.25-.69-.37-1.48-.22a8.7,8.7,0,0,0-4,2.14,20.36,20.36,0,0,0-3.71,3.88c-1.31,1.79-1.18,2.83-1,3.71a1.74,1.74,0,0,0-1.25.17,12.45,12.45,0,0,0-3.63,2.83,12.32,12.32,0,0,0-2.95,4.51c-.92,2.33-.56,3.24-.15,4.11-.33-.15-.78-.1-1.47.32a8.85,8.85,0,0,0-3,3.45,20.53,20.53,0,0,0-2.05,5c-.63,2.4,0,3.25.58,4-.35-.09-.77,0-1.33.6a12.48,12.48,0,0,0-2.32,4,12.71,12.71,0,0,0-1.13,5.24c0,2.48.67,3.19,1.38,3.85-.36,0-.76.19-1.24.82a10.33,10.33,0,0,0-1.69,4.27,20,20,0,0,0-.08,5.31C123.15,132.23,123.77,132.93,124.45,133.44Z"/>
		</g>
	</g>
</svg>