<?xml version="1.0" encoding="utf-8"?>
<!-- Generator: Adobe Illustrator 19.0.1, SVG Export Plug-In . SVG Version: 6.00 Build 0)  -->
<svg version="1.1" id="Layer_1" xmlns="http://www.w3.org/2000/svg" xmlns:xlink="http://www.w3.org/1999/xlink" x="0px" y="0px"
	 viewBox="0 0 45.4 45.4" style="enable-background:new 0 0 45.4 45.4;" xml:space="preserve">
<style type="text/css">
	.st0{fill-rule:evenodd;clip-rule:evenodd;fill:#FFFFFF;}
</style>
<path class="st0" d="M22.7,0C10.2,0,0,10.2,0,22.7s10.2,22.7,22.7,22.7c12.5,0,22.7-10.2,22.7-22.7S35.2,0,22.7,0z M27,23.1h-3.2
	v8.6h-3.3v-8.6h-2.3V20h2.3c0,0,0-1.3,0-2.6c0-2.1,1.3-4,4.4-4c1.3,0,2.2,0.1,2.2,0.1L27,16.4c0,0-0.9,0-2,0c-1.1,0-1.3,0.5-1.3,1.4
	c0,0.1,0,0.1,0,0.1c0,0.2,0,0.8,0,2.1h3.4L27,23.1z"/>
</svg>
