<svg xmlns="http://www.w3.org/2000/svg" viewBox="0 0 576.75 576.75">
	<defs></defs>
	<title>Asset 1</title>
	<g id="Layer_2" data-name="Layer 2">
		<g id="Layer_1-2" data-name="Layer 1">
			<path fill="#caaa66" d="M557.43,271.9c-9.9-.48-19.89,4.56-29.72,6.33A70.9,70.9,0,0,1,512,279.37c-1.55-5.11-4.11-6.92-6.94-5.52l-.14.07a226.18,226.18,0,0,0-3.27-26.24,210.55,210.55,0,0,0-8.76-32.15,216.11,216.11,0,0,0-30.59-56.84q-5.08-6.78-10.68-13.17l.25-.08c3-1,3.53-4.1,1-8.81a71,71,0,0,1,11.95-10.33c8.52-5.93,19.68-9.48,26.27-17.44,5.66-6.84,8.45-17.19,1.23-24.41-7.54-7.53-18.5-4.16-25.31,2-7.34,6.66-10.84,17.29-16.54,25.49a71,71,0,0,1-10.34,11.95c-4.71-2.52-7.8-2-8.8,1l-.11.35c-2.2-1.93-4.42-3.82-6.69-5.65A218,218,0,0,0,386.38,95a226.16,226.16,0,0,0-20.94-9.24A211.39,211.39,0,0,0,328,75.3a215,215,0,0,0-25.46-2.88l.35-.69c1.41-2.83-.4-5.39-5.52-6.94A71,71,0,0,1,298.52,49c1.83-10.21,7.21-20.62,6.24-30.9C303.93,9.29,298.59,0,288.38,0c-10.66,0-16,10.13-16.47,19.32-.48,9.9,4.56,19.89,6.33,29.72a71,71,0,0,1,1.14,15.76c-5.11,1.55-6.92,4.11-5.51,6.94l.3.59c-6.62.38-13.22,1-19.75,2a215.94,215.94,0,0,0-67.29,22.29,214.29,214.29,0,0,0-26.18,16.25q-8,5.77-15.42,12.26l-.06-.18c-1-3-4.1-3.53-8.81-1A71.06,71.06,0,0,1,126.31,112c-5.93-8.52-9.48-19.68-17.44-26.27C102,80,91.68,77.24,84.46,84.46c-7.53,7.54-4.16,18.5,2,25.31,6.66,7.34,17.29,10.84,25.49,16.54a70.9,70.9,0,0,1,11.95,10.34c-2.52,4.71-2,7.8,1,8.8l.15.05a213.83,213.83,0,0,0-36,56.35,219.24,219.24,0,0,0-13.77,43.68,211.92,211.92,0,0,0-3.71,28.29c-2.79-1.32-5.31.5-6.84,5.56A71.12,71.12,0,0,1,49,278.23C38.82,276.4,28.42,271,18.13,272,9.29,272.82,0,278.16,0,288.37c0,10.66,10.14,16,19.32,16.47,9.9.48,19.89-4.56,29.72-6.33a71.11,71.11,0,0,1,15.76-1.14c1.52,5,4,6.85,6.78,5.58q.57,8.31,1.76,16.56a203.18,203.18,0,0,0,6.52,29.92c2.18,7.2,4.62,14.34,7.49,21.29a216.76,216.76,0,0,0,21.27,39.4c4.17,6.11,8.69,12,13.43,17.67q1.46,1.75,3,3.47l-.09,0c-3,1-3.53,4.1-1,8.81A71.05,71.05,0,0,1,112,450.44c-8.52,5.93-19.68,9.48-26.27,17.44-5.66,6.84-8.46,17.19-1.23,24.41,7.54,7.54,18.5,4.17,25.31-2,7.34-6.66,10.84-17.29,16.54-25.49a71.06,71.06,0,0,1,10.33-11.95c4.71,2.52,7.8,2,8.81-1l.06-.19,1.48,1.29A218.47,218.47,0,0,0,175.7,473.7a216.07,216.07,0,0,0,31.17,15.62,208.55,208.55,0,0,0,33.87,10.54,231.29,231.29,0,0,0,33.37,4.68l-.25.49c-1.41,2.83.4,5.39,5.51,6.94a70.89,70.89,0,0,1-1.14,15.76c-1.83,10.21-7.21,20.62-6.24,30.9.84,8.84,6.18,18.13,16.39,18.13,10.66,0,16-10.14,16.47-19.32.48-9.9-4.56-19.89-6.33-29.72A71,71,0,0,1,297.38,512c5.11-1.55,6.92-4.11,5.52-6.94l-.2-.39a213.48,213.48,0,0,0,22-2.61,222,222,0,0,0,39-10.39A214.8,214.8,0,0,0,396.95,476a218.57,218.57,0,0,0,29.85-20.76c1.49-1.23,2.93-2.51,4.38-3.78l.12.37c1,3,4.1,3.53,8.8,1a71,71,0,0,1,10.33,11.95c5.93,8.52,9.48,19.68,17.44,26.27,6.84,5.66,17.19,8.46,24.41,1.23,7.54-7.54,4.17-18.5-2-25.31-6.66-7.34-17.29-10.84-25.49-16.54a70.89,70.89,0,0,1-11.95-10.33c2.52-4.71,2-7.8-1-8.81l-.29-.09.33-.36a218.31,218.31,0,0,0,20.88-28.14A216,216,0,0,0,488.67,372a205.36,205.36,0,0,0,10.92-33.48c1.84-8,3.13-16.21,4.32-24.38.54-3.71.9-7.45,1.14-11.19,2.81,1.37,5.36-.44,6.9-5.53a70.88,70.88,0,0,1,15.76,1.14c10.21,1.83,20.62,7.21,30.9,6.24,8.84-.84,18.14-6.18,18.14-16.39C576.75,277.72,566.62,272.35,557.43,271.9ZM469,224a185.32,185.32,0,0,1,7.71,28.28c1.12,6,1.95,12.12,2.51,18.24-1.87-.37-4.68.6-4.62,1.89.11,2.16-.57,3.55-2.08,5.37-36.55,8.54-65.66,2.65-100.63-10-6.84-2.48-18.93-.82-22.76,6.18a25,25,0,0,0-1.71,4c-.29.54-.56,1.1-1,1.21a12.86,12.86,0,0,1-7-.42,2.94,2.94,0,0,0-1.34-1.2h0c0-.31.09-.64.13-.95.33-2.12-.78-3.67-2-3.91a17.82,17.82,0,0,0-4.58-.2c-.42-1.14-.9-2.25-1.41-3.34a18,18,0,0,0,3.12-3.39c.68-1,.37-2.9-1.36-4.17l-.71-.53a1.82,1.82,0,0,0,.07-1.12,12.66,12.66,0,0,1,5.64-6.16l.06,0a25.24,25.24,0,0,0,4.49,1.83c7.66,2.25,17.38-5.13,20.46-11.72,15.75-33.7,32.17-58.45,64.05-78.25,2.35.22,3.81.72,5.26,2.32.86.94,3.45-.31,4.54-1.86,2.12,2.56,4.2,5.15,6.19,7.8A190.93,190.93,0,0,1,469,224ZM356.33,109.4a200.9,200.9,0,0,1,18.57,8.2,192,192,0,0,1,33.66,21.73c.67.54,1.33,1.1,2,1.65-1.52,1.12-2.72,3.64-1.79,4.49,1.6,1.46,2.11,2.92,2.33,5.26-19.8,31.88-44.56,48.3-78.25,64.06-6.59,3.08-14,12.8-11.72,20.46a25.29,25.29,0,0,0,1.59,4c.18.58.38,1.18.14,1.58a12.88,12.88,0,0,1-5.26,4.67,2.92,2.92,0,0,0-1.8.1h0l-.57-.77c-1.26-1.72-3.14-2-4.17-1.36a18.16,18.16,0,0,0-3.46,3.2q-1.6-.73-3.27-1.34a18.08,18.08,0,0,0-.19-4.72c-.24-1.21-1.8-2.31-3.91-2l-.88.13a1.81,1.81,0,0,0-.74-.84,12.68,12.68,0,0,1-.37-8.35l0-.05a25.18,25.18,0,0,0,4.47-1.88c7-3.83,8.66-15.92,6.18-22.76-12.69-35-18.58-64.08-10-100.63,1.81-1.5,3.21-2.18,5.37-2.08,1.19.06,2.11-2.34,2-4.17a170.34,170.34,0,0,1,17.25,2.18A185.88,185.88,0,0,1,356.33,109.4ZM198.89,119a190.7,190.7,0,0,1,59.48-19.7c4-.63,8.07-1.07,12.13-1.39-.2,1.85.73,4.34,1.95,4.28,2.16-.11,3.56.57,5.37,2.08,8.54,36.55,2.65,65.66-10,100.63-2.48,6.84-.82,18.93,6.18,22.76a24.92,24.92,0,0,0,4,1.71c.54.29,1.1.56,1.21,1a12.83,12.83,0,0,1-.42,7,2.93,2.93,0,0,0-1.2,1.34v0l-.95-.13c-2.11-.32-3.66.78-3.91,2a18.09,18.09,0,0,0-.19,4.72q-1.67.61-3.27,1.35a18,18,0,0,0-3.46-3.2c-1-.68-2.9-.37-4.17,1.36l-.53.71a1.82,1.82,0,0,0-1.12-.07,12.68,12.68,0,0,1-6.17-5.63s0,0,0-.06a25.26,25.26,0,0,0,1.83-4.49c2.25-7.66-5.13-17.38-11.72-20.46-33.7-15.75-58.45-32.17-78.25-64.06.22-2.34.72-3.81,2.32-5.26,1-.87-.35-3.54-1.93-4.61q4.8-4,9.84-7.61A189,189,0,0,1,198.89,119Zm-86.5,92.93a190.06,190.06,0,0,1,18.39-32.8c3.15-4.51,6.52-8.88,10.06-13.1,1,1.59,3.75,2.92,4.62,2,1.46-1.6,2.92-2.11,5.27-2.33,31.88,19.8,48.3,44.55,64.05,78.25,3.08,6.59,12.8,14,20.46,11.72a25,25,0,0,0,4-1.59c.58-.18,1.18-.38,1.58-.14a12.88,12.88,0,0,1,4.67,5.26,2.93,2.93,0,0,0,.1,1.8v0l-.77.57c-1.72,1.27-2,3.15-1.36,4.17a18,18,0,0,0,3.12,3.39c-.51,1.09-1,2.2-1.4,3.33a18,18,0,0,0-4.58.2c-1.21.25-2.31,1.8-2,3.91,0,.29.08.59.13.88a1.81,1.81,0,0,0-.84.75,12.7,12.7,0,0,1-8.35.38l-.05,0a25.29,25.29,0,0,0-1.88-4.47c-3.83-7-15.92-8.66-22.76-6.18-35,12.69-64.08,18.58-100.63,10-1.5-1.81-2.18-3.21-2.08-5.37.06-1.36-3-2.35-4.88-1.83a183.44,183.44,0,0,1,2.9-20.16A193.72,193.72,0,0,1,112.4,211.94ZM110.82,361.1c-2.55-6.2-4.73-12.57-6.68-19a177.74,177.74,0,0,1-5.7-26.2c-.47-3.25-.83-6.51-1.14-9.79,1.86.53,5-.47,4.9-1.82-.1-2.16.57-3.55,2.08-5.37,36.55-8.54,65.66-2.65,100.63,10,6.84,2.48,18.93.83,22.76-6.18a25,25,0,0,0,1.71-4c.29-.54.56-1.1,1-1.22a12.87,12.87,0,0,1,7,.42,2.94,2.94,0,0,0,1.34,1.2h0c0,.32-.09.64-.14.95-.32,2.12.78,3.67,2,3.91a18,18,0,0,0,4.59.2c.42,1.13.88,2.25,1.39,3.34a17.88,17.88,0,0,0-3.11,3.39c-.68,1-.37,2.9,1.36,4.17l.71.53a1.84,1.84,0,0,0-.06,1.12,12.68,12.68,0,0,1-5.64,6.16h-.07a25.38,25.38,0,0,0-4.49-1.83c-7.66-2.25-17.38,5.13-20.46,11.72-15.75,33.7-32.17,58.45-64.05,78.25-2.35-.22-3.81-.72-5.26-2.32-.88-1-3.61.38-4.64,2-4-4.81-7.79-9.78-11.3-14.94A190.62,190.62,0,0,1,110.82,361.1ZM216.38,465.84a190.58,190.58,0,0,1-27.5-13.78,193.37,193.37,0,0,1-22.77-16.22c1.56-1.08,2.83-3.7,1.89-4.56-1.6-1.46-2.11-2.92-2.33-5.27,19.8-31.88,44.56-48.3,78.25-64.05,6.59-3.08,14-12.8,11.72-20.46a25,25,0,0,0-1.59-4c-.18-.58-.38-1.18-.14-1.58a12.84,12.84,0,0,1,5.26-4.67,2.94,2.94,0,0,0,1.8-.1h0l.57.77c1.27,1.72,3.14,2,4.17,1.36a18,18,0,0,0,3.47-3.2c1.07.49,2.16.95,3.27,1.35a18.15,18.15,0,0,0,.19,4.72c.24,1.21,1.8,2.31,3.91,2l.88-.13a1.82,1.82,0,0,0,.75.84,12.68,12.68,0,0,1,.37,8.34s0,0,0,.06a25.51,25.51,0,0,0-4.47,1.88c-7,3.83-8.66,15.92-6.18,22.76,12.69,35,18.58,64.08,10,100.63-1.81,1.5-3.21,2.18-5.37,2.08-1.22-.06-2.15,2.44-1.95,4.3a205.89,205.89,0,0,1-24.5-3.74A183.5,183.5,0,0,1,216.38,465.84Zm167.85-11.75a189.48,189.48,0,0,1-29.32,13.77,196,196,0,0,1-34.49,9.2c-4.7.8-9.43,1.43-14.19,1.87.25-1.86-.69-4.45-1.93-4.38-2.16.1-3.55-.58-5.37-2.08-8.54-36.55-2.65-65.66,10-100.63,2.48-6.84.82-18.93-6.18-22.76a25.18,25.18,0,0,0-4-1.71c-.54-.29-1.1-.56-1.21-1a12.85,12.85,0,0,1,.42-7,2.91,2.91,0,0,0,1.2-1.34v0l.95.14c2.11.32,3.67-.78,3.91-2a18.15,18.15,0,0,0,.19-4.72c1.11-.41,2.2-.86,3.27-1.35a18.08,18.08,0,0,0,3.47,3.2c1,.68,2.9.37,4.17-1.36l.53-.71a1.82,1.82,0,0,0,1.12.06,12.68,12.68,0,0,1,6.16,5.64s0,0,0,.06a25.53,25.53,0,0,0-1.83,4.49c-2.25,7.66,5.13,17.38,11.72,20.46,33.7,15.75,58.45,32.17,78.25,64.05-.22,2.34-.72,3.81-2.32,5.26-.94.85.28,3.4,1.81,4.51l0,0A193.68,193.68,0,0,1,384.23,454.09Zm90.62-121.25a180.58,180.58,0,0,1-9.58,29.34,190.2,190.2,0,0,1-14,27.14,193,193,0,0,1-15.42,21.26c-1.11-1.54-3.67-2.76-4.52-1.83-1.45,1.6-2.92,2.11-5.26,2.33-31.88-19.8-48.3-44.55-64.05-78.25-3.08-6.59-12.8-14-20.46-11.72a25,25,0,0,0-4,1.59c-.58.18-1.18.38-1.59.14a12.84,12.84,0,0,1-4.67-5.26,2.93,2.93,0,0,0-.1-1.79v0l.77-.57c1.73-1.27,2-3.14,1.36-4.17a18.07,18.07,0,0,0-3.11-3.39q.76-1.64,1.39-3.34a18,18,0,0,0,4.59-.2c1.2-.25,2.31-1.8,2-3.91,0-.29-.08-.59-.12-.88a1.82,1.82,0,0,0,.84-.75,12.67,12.67,0,0,1,8.34-.37l.06,0a25.43,25.43,0,0,0,1.88,4.47c3.83,7,15.92,8.66,22.76,6.18,35-12.69,64.08-18.58,100.63-10,1.5,1.81,2.18,3.21,2.08,5.37-.06,1.33,2.93,2.32,4.79,1.86-.16,1.58-.35,3.16-.58,4.73C477.67,318.17,476.51,325.56,474.85,332.85Z"/>
		</g>
	</g>
</svg>