<svg xmlns="http://www.w3.org/2000/svg" viewBox="0 0 631.95 623.14">
	<defs>
	</defs>
	<title>Asset 3</title>
	<g id="Layer_2" data-name="Layer 2">
		<g id="Layer_1-2" data-name="Layer 1">
			<path fill="#caaa66" d="M546.37,402.27a265.21,265.21,0,0,0,0-264.2l.57-.31-.46-.79a268.13,268.13,0,0,0-31-43.15c1.73-3.54,3.56-5.77,7-6l1.78-.14L523,86.3a280.41,280.41,0,0,0-25.08-25l-.39-.35-.5.18A11.33,11.33,0,0,0,490,68.46a267.64,267.64,0,0,0-40.86-29.2l-.72-.42-.46.69-.16.24a266.47,266.47,0,0,0-264,0l-.43-.78-.79.46a268.07,268.07,0,0,0-43.15,31c-3.54-1.73-5.77-3.56-6-7l-.14-1.78-1.33,1.18A280,280,0,0,0,107,88l-.34.39.18.5a11.3,11.3,0,0,0,7.29,7.1,268,268,0,0,0-29.21,40.86l-.42.72.69.46,0,0a265.22,265.22,0,0,0,0,264.2l-.57.31.46.79a268.05,268.05,0,0,0,31,43.15c-1.73,3.54-3.55,5.77-7,6l-1.78.14,1.18,1.33a279.56,279.56,0,0,0,25.08,25l.39.34.5-.18a11.33,11.33,0,0,0,7.11-7.29,267.41,267.41,0,0,0,40.86,29.2l.72.42.46-.69.16-.24a266.47,266.47,0,0,0,264,0l.43.78.79-.46a268,268,0,0,0,43.15-31c3.54,1.73,5.77,3.56,6,7l.14,1.78,1.34-1.18a279.56,279.56,0,0,0,25-25.08l.35-.39-.18-.49a11.3,11.3,0,0,0-7.29-7.11,267.86,267.86,0,0,0,29.21-40.86l.42-.72-.69-.46ZM449.82,47a262.06,262.06,0,0,1,37.1,27.2L509.2,96.24a262.68,262.68,0,0,1,29.21,39.44c-29.84,16.16-60,33.61-89.89,51.91a157.84,157.84,0,0,0-15.84-21.25l-2.27-2.56-5.63-6-6.29-5.51a157.72,157.72,0,0,0-20.62-15.29A847.3,847.3,0,0,1,449.82,47ZM116.89,101.52h0l2-2.31.3-.34,22.36-22.53h0a262.84,262.84,0,0,1,39.17-29c16.16,29.83,33.6,60,51.91,89.89a158.16,158.16,0,0,0-21.25,15.84l-2.56,2.27L202.77,161l-5.5,6.27A157.73,157.73,0,0,0,182,187.91a847.64,847.64,0,0,1-90-52A262.13,262.13,0,0,1,116.89,101.52ZM181,493.78a262.27,262.27,0,0,1-37.1-27.2h0l-22.18-22,0,0a262.5,262.5,0,0,1-29.27-39.51c29.85-16.17,60-33.61,89.89-51.91a158.17,158.17,0,0,0,15.84,21.24l2.27,2.56,5.62,6,6.29,5.51A158,158,0,0,0,233,403.8,846.85,846.85,0,0,1,181,493.78ZM390.87,402a152.27,152.27,0,0,1-150.2,0l.33-.67-.72-.41a151.43,151.43,0,0,1-22.78-16.23,6.48,6.48,0,0,0,1.85-2.72l.23-.58-.47-.41a148.42,148.42,0,0,1-13.32-13.24l-.81-.91-.62,1a5,5,0,0,1-1.87,1.93,151.77,151.77,0,0,1-17.35-24.2l-.47-.79-.78.48-.08.05a151.55,151.55,0,0,1,0-150.33h0l.78.38.41-.72a152,152,0,0,1,16.23-22.78,6.51,6.51,0,0,0,2.72,1.84l.58.23.41-.47a148.68,148.68,0,0,1,13.24-13.32l.91-.81-1-.62a5,5,0,0,1-1.93-1.87,151.55,151.55,0,0,1,24.2-17.35l.79-.47-.46-.74a152.27,152.27,0,0,1,150.2,0l-.33.67.72.42A151.84,151.84,0,0,1,414,155.64a6.54,6.54,0,0,0-1.84,2.72l-.23.58.47.41a148.28,148.28,0,0,1,13.31,13.24l.8.91.62-1a5.08,5.08,0,0,1,1.88-1.93,151.34,151.34,0,0,1,17.36,24.2l.46.79.78-.48.09-.05a151.54,151.54,0,0,1,0,150.34h0l-.78-.39-.41.71a151.94,151.94,0,0,1-16.23,22.79,6.47,6.47,0,0,0-2.71-1.85l-.58-.23-.41.47a148.9,148.9,0,0,1-13.24,13.31l-.9.8,1,.62a5.05,5.05,0,0,1,1.93,1.88,151.78,151.78,0,0,1-24.2,17.36l-.79.46Zm120.77,39.86-22.35,22.52h0a262.63,262.63,0,0,1-39.18,29c-16.16-29.84-33.6-60-51.91-89.9a158.23,158.23,0,0,0,21.25-15.83l2.56-2.27,6.05-5.63,5.51-6.29a158,158,0,0,0,15.29-20.62,846.57,846.57,0,0,1,90,51.95A262.17,262.17,0,0,1,511.64,441.87Z"/>
			<path fill="#caaa66" d="M339.44,623.14c-25,0-54.45-4.06-88.1-12.17-51.17-12.33-59.45-29.73-65-51.19-.51-2-1-3.88-1.56-5.71-3.1-10.14-11.83-17.64-23.9-28-4.71-4.05-10.05-8.64-15.51-13.84l-7.72-7.34c-14.06-13.36-20.48-19.46-31.21-30.79l15.25-14.44c10.35,10.93,16.64,16.91,30.43,30l7.74,7.36c5.07,4.83,10,9,14.72,13.12,13.64,11.72,25.42,21.84,30.3,37.8.7,2.28,1.26,4.48,1.81,6.62,1.87,7.28,3.35,13,8.89,18.4,7.21,7,20.51,12.75,40.66,17.61,56.69,13.66,101.23,15.22,128.81,4.53,11.15-4.33,18.12-7.3,23.31-10a45.69,45.69,0,0,0,7-4.24l-.4-.35c-14.3-12-16.06-23.25-15-30.61,1.69-12,11.75-22.1,29.9-30.13,10.29-4.55,19.22-7.79,27.09-10.65,17.21-6.25,25.67-9.61,30.17-17.55,7.58-13.41,17.54-24.43,30.15-38.38,4.47-4.95,9.09-10.06,14.19-15.9l.69-.79c19.79-22.69,44.42-50.94,68.92-105.63,22.92-51.17,1.49-106-20.39-153.33-17.79-38.49-43.21-75.65-69.76-102-1.89-1.87-3.88-3.92-6-6.1C480.39,44.22,439.31,1.88,359.14,34.4c-59.4,24.09-92.44,9-119-3.16-17.3-7.92-29.8-13.63-46.54-7.94-43.65,14.85-83.88,65.77-104,94.8-1.4,2-3.22,4.52-5.33,7.42C63,154.84,6.31,232.73,24.59,307.94s53.09,108.87,83.82,138.64c3.85,3.73,7.49,7.26,11.1,10.86l-1.09,26.62c-3.49-3.49-20.82-18.72-24.62-22.4C62.65,431.49,23.87,393.93,4.18,312.9c-20.57-84.65,40.25-168.26,63.14-199.74,2-2.79,3.79-5.21,5-7C93.94,75,137.5,20.2,186.86,3.41c24.64-8.38,43.66.32,62,8.73,25.24,11.54,51.33,23.49,102.35,2.8C391.42-1.35,428.35-2.72,461,10.9c27.35,11.39,46.38,31,59,44,2,2.1,4,4.08,5.7,5.8,28.26,28,55.25,67.38,74,108.06,10.6,22.93,22.4,49.84,28.37,79,7,34.25,4.42,64.25-7.87,91.71C594.46,397,567.6,427.83,548,450.32l-.69.79c-5.22,6-10.11,11.4-14.43,16.18-12.2,13.5-21,23.25-27.46,34.64-8.51,15-23,20.3-41.28,27-7.56,2.75-16.12,5.86-25.76,10.12-12.3,5.44-17.16,10.72-17.6,13.85-.41,2.87,2.47,7.2,7.7,11.57,7.07,5.91,10.07,12.42,8.93,19.36-2.21,13.44-19.15,21-44.74,30.88C378.09,620.31,360.31,623.14,339.44,623.14Z"/>
		</g>
	</g>
</svg>