<?xml version="1.0" encoding="utf-8"?>
<!-- Generator: Adobe Illustrator 19.0.1, SVG Export Plug-In . SVG Version: 6.00 Build 0)  -->
<svg version="1.1" id="Layer_1" xmlns="http://www.w3.org/2000/svg" xmlns:xlink="http://www.w3.org/1999/xlink" x="0px" y="0px"
	 viewBox="0 0 45.4 45.4" style="enable-background:new 0 0 45.4 45.4;" xml:space="preserve">
<style type="text/css">
	.st0{fill:#FFFFFF;}
</style>
<path class="st0" d="M22.7,0C10.2,0,0,10.2,0,22.7c0,12.5,10.2,22.7,22.7,22.7c12.5,0,22.7-10.2,22.7-22.7C45.4,10.2,35.2,0,22.7,0z
	 M18.8,27.6h-3.4v-9.4h3.4V27.6z M17.1,17.4c-0.9,0-1.7-0.8-1.7-1.7c0-0.9,0.8-1.7,1.7-1.7c0.9,0,1.7,0.8,1.7,1.7
	C18.8,16.6,18.1,17.4,17.1,17.4z M29.9,27.6h-3.4v-5.1c0-1-0.3-1.7-1.1-1.7c-1.5,0-1.5,1.7-1.5,1.7v5.1h-3.4v-9.4H24l0,1.5
	c0,0,0.3-1.5,2.9-1.5c1.9,0,3.1,1.6,3.1,4.3V27.6z"/>
</svg>
