<?xml version="1.0" encoding="utf-8"?>
<!-- Generator: Adobe Illustrator 19.0.1, SVG Export Plug-In . SVG Version: 6.00 Build 0)  -->
<svg version="1.1" baseProfile="basic" id="Vordergrund"
	 xmlns="http://www.w3.org/2000/svg" xmlns:xlink="http://www.w3.org/1999/xlink" x="0px" y="0px" viewBox="0 0 613.8 95.8"
	 xml:space="preserve">
<g>

		<path fill-rule="evenodd" clip-rule="evenodd" fill="#003976" stroke="#003976" stroke-width="0.5244" stroke-miterlimit="3.8637" d="
		M87.9,41.6c0-24.5,5.3-36.5,19.7-36.5c14.4,0,19.7,12,19.7,36.5c0,24.4-5.3,36.4-19.7,36.4C93.2,78,87.9,66,87.9,41.6z M66.4,41.6
		c0-28.4,18.4-41.3,41.2-41.3c22.9,0,41.2,12.9,41.2,41.5c0,28.3-18.3,41.2-41.2,41.2C84.7,82.9,66.4,70,66.4,41.6z"/>
	<g>

			<circle fill-rule="evenodd" clip-rule="evenodd" fill="none" stroke="#003976" stroke-width="3" stroke-miterlimit="3.8637" cx="600" cy="14.6" r="12.3"/>

			<path fill-rule="evenodd" clip-rule="evenodd" fill="#003976" stroke="#003976" stroke-width="9.830000e-002" stroke-miterlimit="3.8637" d="
			M599.1,8.5c0-0.2,0.1-0.4,0.4-0.4h1.3c1.8,0,2.9,1.6,2.9,3c0,1.9-1.7,3-2.9,3h-1.3c-0.2,0-0.4-0.2-0.4-0.4V8.5z M592.7,7.1h10.5
			c2.5,0,4,2.2,4,3.9c0,2.5-2,4-4,4l-0.9,0c0.9,0,1,0.2,1.8,1.1l3.7,4.1c0.5,0.7,0.8,1,1.8,1c0,0,0,0.5,0,0.5h-2.3
			c-1.3,0-2-0.5-2.4-0.9l-5.1-5.6c-0.1-0.1-0.2-0.2-0.3-0.2c0,0,0,0,0,0c-0.3,0-0.4,0.2-0.4,0.4v3.8c0,1.1,1.3,2,2.8,2v0.5h-9.2
			v-0.5c1.5,0,2.8-0.9,2.8-2V9.6c0-1.2-1.3-2-2.8-2L592.7,7.1z"/>
	</g>

		<path fill-rule="evenodd" clip-rule="evenodd" fill="#003976" stroke="#003976" stroke-width="0.5244" stroke-miterlimit="3.8637" d="
		M14.3,2.3h50.6v2.4c-8.7,0-15,5-15,10.5c0,0.5,0,54.8,0,54.8c0.3,16.5-12.7,25.5-26.1,25.5C10.8,95.5-0.1,84.1,0.3,76.6
		c0-0.1,0-0.2,0-0.2c0-13,19.6-13,19.6,0c0,0,0,12.1,0,12.1c0,6.3,9.5,6.3,9.5,0c0,0,0-73.3,0-73.3c0-5.5-6.3-10.5-15-10.5
		C14.3,4.7,14.3,2.3,14.3,2.3z"/>

		<path fill-rule="evenodd" clip-rule="evenodd" fill="#003976" stroke="#003976" stroke-width="0.5244" stroke-miterlimit="3.8637" d="
		M508.2,77.6c7-0.1,14.9-4,14.9-10.7V7.3c-16.3,0-22.9,11.8-22.9,20h-3V2.3h72.1l0,25.1h-3c0-7-5.4-20-22.6-20c0,0,0,56,0,59.4
		c0,7.8,9.1,10.8,15,10.8V80h-50.5C508.2,80,508.2,77.6,508.2,77.6z"/>

		<path fill-rule="evenodd" clip-rule="evenodd" fill="#003976" stroke="#003976" stroke-width="0.5244" stroke-miterlimit="3.8637" d="
		M290.2,0.3c-23.2,0-42.3,12.4-42.3,41.4c0,27.8,17.7,41.2,41.1,41.2c23.4,0,32.5-9.5,32.5-9.6c0-0.1,0-20.3,0-20.3
		c0-5.7,6.5-10.5,15-10.5c0,0,0-2.5,0-2.5h-48.4v2.5c8.6,0,15,5.1,15,10.5c0,0.1,0,17,0,18.1c0,0-3.8,6.9-13.8,6.9
		c-14.6,0-19.8-11.7-19.8-36.4c0-16,1.1-36.4,20.1-36.4c18.1,0,29.2,15.8,29.2,22.8h2.9l0-25.6h-2.3c0,0-4.9,3.6-12.3,1.3
		C297.7,0.7,293.6,0.3,290.2,0.3z"/>

		<path fill-rule="evenodd" clip-rule="evenodd" fill="#003976" stroke="#003976" stroke-width="0.5244" stroke-miterlimit="3.8637" d="
		M407.3,2.3v25.1h-2.8c0-6.8-8.8-20-29.9-20c-0.1,0-6.8,0-6.9,0c0,0,0,32.2,0,32.2c2,0,3.7,0,5.4,0c8.3,0,15-5,15-10.4h2.8V55
		c0,0-2.8,0-2.8,0c0-5.1-6.1-10.4-15-10.4c0,0-2.7,0-5.4,0c0,0.1,0,30.3,0,30.3c0,0-15.4,0,6.9,0c19.4,0,29.9-11.9,29.9-19.9
		c0,0,2.8,0,2.8,0V80h-74.4c0,0,0-2.4,0-2.4c7.9,0,15.1-4.3,15.1-10.9c0,0,0-51.4,0-51.4c0-5.8-6.8-10.6-15.1-10.6V2.3H407.3z"/>

		<path fill-rule="evenodd" clip-rule="evenodd" fill="#003976" stroke="#003976" stroke-width="0.5244" stroke-miterlimit="3.8637" d="
		M447.4,7.4h9.1c9.8,0,15.7,8.7,15.7,16c0,10.3-8.9,16.2-15.7,16.2h-9.1V7.4z M413.4,2.3h56.2c13.5,0,21.1,11.7,21.1,20.8
		c0,13.4-10.8,21.6-21.1,21.6l-6.4,0c4.9,0,5.2,0.8,9.9,6l19.8,21.8c3.4,3.7,4.3,5.1,9.4,5.1c0,0,0,2.4,0,2.4h-13.1
		c-6.9,0-10.9-2.4-12.9-4.7l-28.8-31.8v3.4v20.1c0,5.7,6.8,10.5,14.9,10.5V80h-49v-2.4c8.2,0,15-4.6,15-10.5V15.5
		c0-6.2-6.8-10.8-15-10.7L413.4,2.3z"/>
	<g>

			<path fill-rule="evenodd" clip-rule="evenodd" fill="#003976" stroke="#003976" stroke-width="0.5244" stroke-miterlimit="3.8637" d="
			M182,2.3l40.5,42.9V15.3c0-5.5-6.4-10.5-15-10.5V2.3h39.3l0,2.4c-8.7,0-15,5-15,10.5c0,0,0,64.7,0,64.7h-2.4l-54.8-57.7l0,44.8
			c0,5.5,6.3,10.5,15,10.5c0,0,0,2.4,0,2.4h-39.3c0,0,0-2.4,0-2.4c8.6,0,14.9-5,14.9-10.5c0-0.1,0-51.8,0-51.8
			c0-5.5-6.3-10.5-14.9-10.5c0,0,0-2.4,0-2.4C150.4,2.3,182,2.3,182,2.3z"/>
		<polygon fill-rule="evenodd" clip-rule="evenodd" fill="#FFFFFF" points="174.8,21.6 175.2,23 174.8,22.9 		"/>
		<polygon fill-rule="evenodd" clip-rule="evenodd" fill="#FFFFFF" points="222.5,45.9 222.1,44.5 222.5,44.5 		"/>
	</g>
</g>
</svg>
