<?xml version="1.0" encoding="utf-8"?>
<!-- Generator: Adobe Illustrator 19.0.1, SVG Export Plug-In . SVG Version: 6.00 Build 0)  -->
<svg version="1.1" xmlns="http://www.w3.org/2000/svg" xmlns:xlink="http://www.w3.org/1999/xlink" x="0px" y="0px"
	 viewBox="0 0 614 149.4" enable-background="new 0 0 614 149.4" xml:space="preserve">
<g id="Hintergrund">
</g>
<g id="Vordergrund">
	<path fill-rule="evenodd" clip-rule="evenodd" d="M87.6,41.7c0-24.5,5.3-36.5,19.7-36.5c14.4,0,19.7,12,19.7,36.5
		c0,24.4-5.3,36.4-19.7,36.4C92.9,78.1,87.6,66.2,87.6,41.7z M66.1,41.7c0-28.4,18.4-41.3,41.2-41.3c22.9,0,41.2,12.9,41.2,41.5
		c0,28.3-18.3,41.2-41.2,41.2C84.5,83,66.1,70.1,66.1,41.7z"/>
	<path fill-rule="evenodd" clip-rule="evenodd" d="M14.1,2.4h50.6v2.4c-8.7,0-15,5-15,10.5c0,0.5,0,54.8,0,54.8
		C49.9,86.7,37,95.7,23.6,95.7C10.5,95.6-0.4,84.3,0,76.7c0-0.1,0-0.2,0-0.2c0-13,19.6-13,19.6,0c0,0,0,12.1,0,12.1
		c0,6.3,9.5,6.3,9.5,0c0,0,0-73.3,0-73.3c0-5.5-6.3-10.5-15-10.5C14.1,4.9,14.1,2.4,14.1,2.4z"/>
	<path fill-rule="evenodd" clip-rule="evenodd" d="M507.9,77.7c7-0.1,14.9-4,14.9-10.7V7.5
		c-16.3,0-22.9,11.8-22.9,20h-3V2.4h72.1l0,25.1h-3c0-7-5.4-20-22.6-20c0,0,0,56,0,59.4c0,7.8,9.1,10.8,15,10.8v2.4h-50.5
		C507.9,80.2,507.9,77.7,507.9,77.7z"/>
	<path fill-rule="evenodd" clip-rule="evenodd" d="M289.9,0.4c-23.2,0-42.3,12.4-42.3,41.4
		c0,27.8,17.7,41.2,41.1,41.2c23.4,0,32.5-9.5,32.5-9.6c0-0.1,0-20.3,0-20.3c0-5.7,6.5-10.5,15-10.5c0,0,0-2.5,0-2.5h-48.4v2.5
		c8.6,0,15,5.1,15,10.5c0,0.1,0,17,0,18.1c0,0-3.8,6.9-13.8,6.9c-14.6,0-19.8-11.7-19.8-36.4c0-16,1.1-36.4,20.1-36.4
		c18.1,0,29.2,15.8,29.2,22.8h2.9l0-25.6H319c0,0-4.9,3.6-12.3,1.3C297.5,0.9,293.3,0.4,289.9,0.4z"/>
	<path fill-rule="evenodd" clip-rule="evenodd" d="M407.1,2.4v25.1h-2.8c0-6.8-8.8-20-29.9-20c-0.1,0-6.8,0-6.9,0
		c0,0,0,32.2,0,32.2c2,0,3.7,0,5.4,0c8.3,0,15-5,15-10.4h2.8v25.8c0,0-2.8,0-2.8,0c0-5.1-6.1-10.4-15-10.4c0,0-2.7,0-5.4,0
		c0,0.1,0,30.3,0,30.3c0,0-15.4,0,6.9,0c19.4,0,29.9-11.9,29.9-19.9c0,0,2.8,0,2.8,0v24.9h-74.4c0,0,0-2.4,0-2.4
		c7.9,0,15.1-4.3,15.1-10.9c0,0,0-51.4,0-51.4c0-5.8-6.8-10.6-15.1-10.6V2.4H407.1z"/>
	<path fill-rule="evenodd" clip-rule="evenodd" d="M447.1,7.5h9.1c9.8,0,15.7,8.7,15.7,16c0,10.3-8.9,16.2-15.7,16.2
		h-9.1V7.5z M413.1,2.4h56.2c13.5,0,21.1,11.7,21.1,20.8c0,13.4-10.8,21.6-21.1,21.6l-6.4,0c4.9,0,5.2,0.8,9.9,6l19.8,21.8
		c3.4,3.7,4.3,5.1,9.4,5.1c0,0,0,2.4,0,2.4h-13.1c-6.9,0-10.9-2.4-12.9-4.7l-28.8-31.8v3.4v20.1c0,5.7,6.8,10.5,14.9,10.5v2.4h-49
		v-2.4c8.2,0,15-4.6,15-10.5V15.6c0-6.2-6.8-10.8-15-10.7L413.1,2.4z"/>
	<g>
		<path fill-rule="evenodd" clip-rule="evenodd" d="M181.7,2.4l40.5,42.9V15.4c0-5.5-6.4-10.5-15-10.5V2.4h39.3
			l0,2.4c-8.7,0-15,5-15,10.5c0,0,0,64.7,0,64.7h-2.4l-54.8-57.7l0,44.8c0,5.5,6.3,10.5,15,10.5c0,0,0,2.4,0,2.4h-39.3
			c0,0,0-2.4,0-2.4c8.6,0,14.9-5,14.9-10.5c0-0.1,0-51.8,0-51.8c0-5.5-6.3-10.5-14.9-10.5c0,0,0-2.4,0-2.4
			C150.2,2.4,181.7,2.4,181.7,2.4z"/>
		<polygon fill-rule="evenodd" clip-rule="evenodd" points="174.5,21.8 174.9,23.1 174.5,23.1 		"/>
		<polygon fill-rule="evenodd" clip-rule="evenodd" points="222.2,46 221.8,44.7 222.2,44.7 		"/>
	</g>
	<g>
		<path d="M352.3,139.4c0,3.2-0.8,5.7-2.5,7.4c-1.6,1.7-4,2.6-7.1,2.6c-3,0-5.6-0.6-7.7-1.8v-6.4
			c2.6,1.7,5,2.5,7.1,2.5c1.2,0,2.2-0.3,2.8-1c0.6-0.7,0.9-1.6,0.9-2.8c0-1.2-0.4-2.2-1.1-3.2c-0.7-1-2-2-3.7-3.2
			c-1.5-1-2.6-2-3.4-3c-0.8-0.9-1.4-2-1.8-3.2c-0.4-1.2-0.6-2.5-0.6-4.1c0-3,0.8-5.3,2.5-7.1c1.7-1.7,3.9-2.6,6.7-2.6
			c2.7,0,5.2,0.7,7.7,2.2l-2.1,5.2c-0.8-0.4-1.6-0.8-2.4-1.2c-0.8-0.3-1.7-0.5-2.7-0.5c-1,0-1.8,0.3-2.4,1c-0.6,0.7-0.8,1.6-0.8,2.8
			c0,1.2,0.3,2.2,1,3.1c0.7,0.9,1.8,1.9,3.5,3c2.3,1.5,3.8,3.1,4.7,4.6C351.8,135.5,352.3,137.3,352.3,139.4z"/>
		<path d="M359.6,148.9v-34.7h6.1v34.7H359.6z"/>
		<path d="M399.3,148.9h-7.9l-10.7-25.1h-0.3c0.4,1.9,0.6,4,0.6,6.2v18.9h-6v-34.7h7.9l10.6,24.9h0.3
			c-0.3-1.7-0.5-3.6-0.5-5.9v-18.9h5.9V148.9z"/>
		<path d="M418.8,119.4c-1.9,0-3.3,1.1-4.4,3.2c-1.1,2.2-1.6,5.2-1.6,9c0,8,2.1,12,6.3,12c1.8,0,3.8-0.6,5.8-1.8v5.7
			c-1.7,1.1-3.9,1.7-6.5,1.7c-3.9,0-6.9-1.6-9-4.7c-2.1-3.1-3.1-7.5-3.1-13.1c0-5.6,1.1-10,3.2-13.2c2.2-3.1,5.2-4.7,9-4.7
			c1.3,0,2.5,0.2,3.6,0.5c1.2,0.3,2.4,1,3.7,1.8l-2.1,5.2c-0.7-0.5-1.5-0.9-2.3-1.3C420.6,119.6,419.8,119.4,418.8,119.4z"/>
		<path d="M447.4,148.9h-15.6v-34.7h15.6v5.6h-9.2v8.3h8.5v5.6h-8.5v9.6h9.2V148.9z"/>
		<path d="M482.5,148.9h-6.4v-20.3c0-2.2,0.1-4.8,0.3-7.6c-0.1,0.2-0.5,0.6-1.2,1.4c-0.7,0.8-2.1,2.3-4.1,4.3
			l-3.6-3.9l9.2-8.5h5.7V148.9z"/>
		<path d="M510.3,129.4c0,13.4-4.5,20-13.4,20c-1.5,0-2.7-0.1-3.7-0.4v-5.4c1.1,0.3,2.1,0.5,3,0.5
			c2.6,0,4.6-0.9,6-2.8c1.4-1.8,2.1-4.7,2.3-8.7h-0.2c-0.5,1.3-1.2,2.2-2.2,2.9c-0.9,0.7-2.1,1.1-3.4,1.1c-2.4,0-4.2-1-5.5-2.9
			c-1.3-1.9-1.9-4.6-1.9-7.9c0-3.7,0.8-6.6,2.5-8.8c1.7-2.2,4-3.2,6.8-3.2c3.1,0,5.5,1.3,7.1,4C509.4,120.5,510.3,124.3,510.3,129.4
			z M500.7,119.3c-0.9,0-1.7,0.5-2.3,1.5c-0.6,1-0.8,2.6-0.8,4.9c0,1.8,0.2,3.2,0.7,4.3c0.5,1,1.2,1.5,2.2,1.5
			c0.9,0,1.7-0.5,2.3-1.6c0.7-1,1-2.2,1-3.5c0-2.1-0.3-3.8-0.9-5.1C502.4,120,501.7,119.3,500.7,119.3z"/>
		<path d="M526,127.2c2.6,0,4.7,0.9,6.2,2.7c1.5,1.8,2.3,4.3,2.3,7.5c0,3.8-1,6.7-2.9,8.8c-1.9,2.1-4.6,3.2-8,3.2
			c-3,0-5.5-0.6-7.4-1.7v-6c0.8,0.6,1.8,1.1,3.1,1.6c1.3,0.5,2.5,0.7,3.5,0.7c3.4,0,5.1-2,5.1-5.9c0-3.7-1.7-5.5-5-5.5
			c-1.3,0-2.7,0.3-4.2,0.8l-2.1-1.5l1.1-17.4h14.8v5.8h-9.3l-0.5,7.5C523.8,127.3,524.8,127.2,526,127.2z"/>
		<path d="M558.2,122c0,2.2-0.5,4-1.6,5.5c-1.1,1.5-2.6,2.5-4.6,3.1v0.2c2.2,0.3,3.9,1.2,5.1,2.6
			c1.2,1.4,1.8,3.2,1.8,5.5c0,3.2-1,5.7-3,7.6c-2,1.9-4.7,2.8-8.1,2.8c-3.1,0-5.6-0.5-7.7-1.6V142c1,0.6,2.2,1.1,3.4,1.5
			c1.2,0.4,2.4,0.5,3.5,0.5c1.8,0,3.2-0.4,4.2-1.3c0.9-0.8,1.4-2.2,1.4-4c0-3.5-2.1-5.2-6.4-5.2h-2v-4.8h1.9c1.9,0,3.3-0.4,4.3-1.3
			c1-0.9,1.5-2.2,1.5-4c0-1.4-0.3-2.4-1-3.1c-0.6-0.7-1.5-1.1-2.7-1.1c-1.8,0-3.5,0.8-5.2,2.3l-2.9-4.3c2.3-2.3,5.3-3.5,8.8-3.5
			c2.9,0,5.2,0.7,6.9,2.2C557.4,117.4,558.2,119.5,558.2,122z"/>
	</g>
	<g>
		<g>
			<g>
				<path d="M599.4,29.3c-8.1,0-14.6-6.6-14.6-14.6c0-8.1,6.6-14.6,14.6-14.6c8.1,0,14.6,6.6,14.6,14.6
					C614,22.7,607.5,29.3,599.4,29.3z M599.4,2c-7,0-12.6,5.7-12.6,12.6c0,7,5.7,12.6,12.6,12.6c7,0,12.6-5.7,12.6-12.6
					C612,7.7,606.4,2,599.4,2z"/>
			</g>
			<g>
				<path fill-rule="evenodd" clip-rule="evenodd" d="M598.1,8.9c0-0.2,0.1-0.4,0.4-0.4h1.3c1.8,0,2.9,1.6,2.9,3
					c0,1.9-1.7,3-2.9,3h-1.3c-0.2,0-0.4-0.2-0.4-0.4V8.9z M591.7,7.5h10.5c2.5,0,4,2.2,4,3.9c0,2.5-2,4-4,4l-0.9,0
					c0.9,0,1,0.2,1.8,1.1l3.7,4.1c0.5,0.7,0.8,1,1.8,1c0,0,0,0.5,0,0.5h-2.3c-1.3,0-2-0.5-2.4-0.9l-5.1-5.6
					c-0.1-0.1-0.2-0.2-0.3-0.2c0,0,0,0,0,0c-0.3,0-0.4,0.2-0.4,0.4v3.8c0,1.1,1.3,2,2.8,2v0.5h-9.2v-0.5c1.5,0,2.8-0.9,2.8-2V10
					c0-1.2-1.3-2-2.8-2L591.7,7.5z"/>
				<path d="M608.7,22.1h-2.4c-1,0-1.9-0.3-2.5-0.9l-5.1-5.6c-0.1-0.1-0.2-0.2-0.3-0.2l0,0c-0.3,0-0.4,0.2-0.4,0.4
					v3.8c0,1,1.3,1.9,2.8,1.9h0v0.6h-9.3v-0.6h0c1.5,0,2.8-0.9,2.8-1.9V10c0-0.4-0.2-0.8-0.5-1.1c-0.5-0.5-1.3-0.8-2.2-0.8l-0.1,0
					l0-0.6h10.6c2.6,0,4,2.3,4,4c0,2.6-2,4.1-4,4.1l-0.2,0c0.3,0.1,0.5,0.3,0.9,0.8c0.1,0.1,0.2,0.2,0.3,0.3l3.7,4.1
					c0.5,0.6,0.8,0.9,1.7,0.9h0l0,0C608.7,21.6,608.7,21.6,608.7,22.1L608.7,22.1z M598.5,15.4L598.5,15.4c0.1,0,0.2,0.1,0.4,0.2
					l5.1,5.6c0.6,0.6,1.4,0.9,2.4,0.9h2.3c0-0.1,0-0.3,0-0.4c-1,0-1.3-0.3-1.8-1l-3.7-4.1c-0.1-0.1-0.2-0.2-0.3-0.3
					c-0.6-0.7-0.7-0.8-1.5-0.8h0v-0.1l0.9,0c1.9,0,3.9-1.5,3.9-4c0-1.6-1.4-3.9-3.9-3.9h-10.5l0,0.4c0.9,0,1.8,0.3,2.3,0.8
					c0.3,0.3,0.5,0.8,0.5,1.2v9.7c0,1.1-1.3,2-2.8,2V22h9.1v-0.4c-1.5,0-2.8-0.9-2.8-2v-3.8C598,15.6,598.2,15.4,598.5,15.4
					L598.5,15.4z M599.8,14.5h-1.3c-0.3,0-0.5-0.2-0.5-0.5V8.9c0-0.2,0.1-0.5,0.5-0.5h1.3c1,0,1.7,0.5,2.1,0.9
					c0.6,0.6,0.9,1.4,0.9,2.2C602.8,13.4,601,14.5,599.8,14.5z M598.5,8.5c-0.3,0-0.4,0.3-0.4,0.4V14c0,0.2,0.2,0.4,0.4,0.4h1.3
					c1.2,0,2.9-1,2.9-3c0-0.8-0.3-1.6-0.9-2.1c-0.4-0.4-1-0.8-2-0.8H598.5z"/>
			</g>
		</g>
	</g>
</g>
<g id="Hilfslinien_anzeigen">
</g>
</svg>
