<?xml version="1.0" encoding="utf-8"?>
<!-- Generator: Adobe Illustrator 19.0.1, SVG Export Plug-In . SVG Version: 6.00 Build 0)  -->
<svg version="1.1" id="Layer_1" xmlns="http://www.w3.org/2000/svg" xmlns:xlink="http://www.w3.org/1999/xlink" x="0px" y="0px"
	 viewBox="0 0 497.4 111.5" style="enable-background:new 0 0 497.4 111.5;" xml:space="preserve">
<style type="text/css">
	.st0{fill:#0A3452;}
</style>
<g>
	<polygon class="st0" points="56.4,80.3 54.9,78.9 54.9,67.9 57.9,65 62,65 63.5,66.4 63.5,64.3 59.6,60.5 54.2,60.5 50.4,64.3 
		50.4,76.5 54.2,80.3 	"/>
	<polygon class="st0" points="23.4,99.7 23.4,93.3 27.9,88.8 34.4,88.8 37.4,91.8 37.4,89.7 32,84.3 24.3,84.3 18.9,89.7 18.9,97.4 
		24.3,102.8 26.4,102.8 	"/>
	<polygon class="st0" points="4.5,107.6 4.5,104.8 6.4,102.9 9.2,102.9 9.6,103.3 9.6,101.2 6.8,98.4 2.8,98.4 0,101.2 0,105.2 
		2.8,108 4.9,108 	"/>
	<polygon class="st0" points="49.1,93.7 49.1,90.9 51,89 53.8,89 54.2,89.4 54.2,87.3 51.4,84.5 47.4,84.5 44.6,87.3 44.6,91.3 
		47.4,94.1 49.5,94.1 	"/>
	<polygon class="st0" points="94.5,110.1 94.5,105.9 97.4,103 101.6,103 103,104.4 103,102.3 99.2,98.5 93.8,98.5 90,102.3 
		90,107.7 93.8,111.5 95.9,111.5 	"/>
	<polygon class="st0" points="66,99.4 66,93 70.5,88.4 77,88.4 80,91.5 80,89.3 74.6,83.9 66.9,83.9 61.5,89.3 61.5,97 66.9,102.4 
		69,102.4 	"/>
	<polygon class="st0" points="103.8,89.3 103.8,82.9 108.3,78.3 114.7,78.3 117.8,81.4 117.8,79.3 112.4,73.8 104.7,73.8 99.3,79.3 
		99.3,87 104.7,92.4 106.8,92.4 	"/>
	<polygon class="st0" points="90.5,86.4 90.5,83.7 92.4,81.8 95.2,81.8 95.6,82.2 95.6,80.1 92.8,77.3 88.8,77.3 86,80.1 86,84.1 
		88.8,86.9 90.9,86.9 	"/>
	<polygon class="st0" points="361.3,19.6 360.9,19.1 360.9,16.4 362.8,14.4 365.6,14.4 366,14.9 366,12.8 363.2,9.9 359.2,9.9 
		356.4,12.8 356.4,16.8 359.2,19.6 	"/>
	<polygon class="st0" points="358.9,46.5 358.9,58.7 362.7,62.5 364.8,62.5 363.4,61.1 363.4,50.1 366.3,47.2 370.5,47.2 
		371.9,48.6 371.9,46.5 368.1,42.7 362.7,42.7 	"/>
	<polygon class="st0" points="409.1,25.4 408.6,24.9 408.6,22.2 410.6,20.2 413.3,20.2 413.8,20.7 413.8,18.6 410.9,15.7 407,15.7 
		404.1,18.6 404.1,22.6 407,25.4 	"/>
	<polygon class="st0" points="342.3,44.6 337.4,39.7 337.4,30.6 343.8,24.1 352.9,24.1 357.8,29.1 357.8,26.9 350.5,19.6 
		340.2,19.6 332.9,26.9 332.9,37.3 340.2,44.6 	"/>
	<polygon class="st0" points="115,68.3 114.6,67.9 114.6,65.1 116.5,63.2 119.3,63.2 119.7,63.6 119.7,61.5 116.9,58.7 112.9,58.7 
		110.1,61.5 110.1,65.5 112.9,68.3 	"/>
	<polygon class="st0" points="256.5,51.9 249.7,45.1 249.7,33.4 258,25.1 292.8,25.1 299.6,31.9 299.6,29.7 290.5,20.6 254.3,20.6 
		245.2,29.7 245.2,42.7 254.3,51.9 	"/>
	<polygon class="st0" points="80.6,71.2 75.7,66.3 75.7,57.1 82.1,50.7 91.2,50.7 96.2,55.6 96.2,53.5 88.9,46.2 78.5,46.2 
		71.2,53.5 71.2,63.9 78.5,71.2 	"/>
	<polygon class="st0" points="385.5,60.3 385.5,48.6 393.8,40.3 428.6,40.3 435.4,47.1 435.4,45 426.3,35.8 390.1,35.8 381,45 
		381,57.9 390.1,67.1 392.3,67.1 	"/>
	<polygon class="st0" points="377.1,27.9 377.1,21.5 381.6,16.9 388,16.9 391.1,20 391.1,17.9 385.7,12.4 378,12.4 372.6,17.9 
		372.6,25.5 378,31 380.1,31 	"/>
	<polygon class="st0" points="356.9,75.6 356.9,72.8 358.9,70.9 361.6,70.9 362,71.3 362,69.2 359.2,66.4 355.2,66.4 352.4,69.2 
		352.4,73.2 355.2,76 357.4,76 	"/>
	<polygon class="st0" points="117.2,109 117.2,106.3 119.2,104.3 126.1,104.3 126.6,104.8 126.6,102.6 123.7,99.8 115.5,99.8 
		112.7,102.6 112.7,106.6 115.5,109.5 117.7,109.5 	"/>
	<polygon class="st0" points="463.9,11.6 463.9,7.4 466.8,4.5 471,4.5 472.4,5.9 472.4,3.8 468.6,0 463.2,0 459.4,3.8 459.4,9.2 
		463.2,13 465.3,13 	"/>
	<polygon class="st0" points="317.3,74.4 317.3,62.4 325.8,53.9 337.8,53.9 344.8,60.9 344.8,58.8 335.4,49.4 322.1,49.4 
		312.8,58.8 312.8,72 322.1,81.4 324.3,81.4 	"/>
	<polygon class="st0" points="488.1,12.8 488.1,10 490,8.1 497,8.1 497.4,8.5 497.4,6.4 494.6,3.6 486.4,3.6 483.6,6.4 483.6,10.4 
		486.4,13.2 488.5,13.2 	"/>
	<polygon class="st0" points="470.8,32.4 470.8,29.7 472.7,27.7 475.5,27.7 475.9,28.2 475.9,26 473.1,23.2 469.1,23.2 466.3,26 
		466.3,30 469.1,32.9 471.2,32.9 	"/>
	<polygon class="st0" points="438.5,33.9 438.5,24.8 444.9,18.4 454,18.4 459,23.3 459,21.2 451.6,13.9 441.3,13.9 434,21.2 
		434,31.6 441.3,38.9 443.4,38.9 	"/>
	<polygon class="st0" points="166.7,99.2 166.7,92.8 171.3,88.2 177.7,88.2 180.7,91.3 180.7,89.1 175.3,83.7 167.6,83.7 
		162.2,89.1 162.2,96.8 167.6,102.2 169.8,102.2 	"/>
	<polygon class="st0" points="178.3,73.6 178.3,61.6 186.8,53.1 198.8,53.1 205.8,60.1 205.8,58 196.4,48.6 183.1,48.6 173.8,58 
		173.8,71.3 183.1,80.6 185.3,80.6 	"/>
	<polygon class="st0" points="129.6,88.5 129.6,53.7 137.9,45.4 149.7,45.4 156.5,52.2 156.5,50 147.3,40.9 134.3,40.9 125.1,50 
		125.1,86.2 134.3,95.3 136.4,95.3 	"/>
	<polygon class="st0" points="312,25.3 312,21.2 314.9,18.2 325.9,18.2 327.3,19.7 327.3,17.6 323.5,13.7 311.3,13.7 307.5,17.6 
		307.5,23 311.3,26.8 313.4,26.8 	"/>
	<polygon class="st0" points="220.6,49.5 215.6,44.6 215.6,35.5 222.1,29 231.2,29 236.1,34 236.1,31.9 228.8,24.5 218.4,24.5 
		211.1,31.9 211.1,42.2 218.4,49.5 	"/>
	<polygon class="st0" points="217.8,92.3 217.8,74.5 230.4,62 293.4,62 304.5,73 304.5,70.9 291.1,57.5 226.8,57.5 213.3,70.9 
		213.3,89.9 226.8,103.4 228.9,103.4 	"/>
</g>
</svg>
