<?xml version="1.0" encoding="utf-8"?>
<!-- Generator: Adobe Illustrator 19.0.1, SVG Export Plug-In . SVG Version: 6.00 Build 0)  -->
<svg version="1.1" id="Layer_1" xmlns="http://www.w3.org/2000/svg" xmlns:xlink="http://www.w3.org/1999/xlink" x="0px" y="0px"
	 viewBox="0 0 16.4 16.1" style="enable-background:new 0 0 16.4 16.1;" xml:space="preserve">
<style type="text/css">
	.st0{fill:#9C7B4F;}
</style>
<g>
	<g>
		<path class="st0" d="M16.4,8c0,4.5-3.6,8.1-8.2,8.1C3.6,16.1,0,12.5,0,8c0-4.4,3.6-8,8.2-8C12.8,0,16.4,3.6,16.4,8z M2,8
			c0,3.6,2.6,6.4,6.2,6.4c3.5,0,6.1-2.8,6.1-6.3c0-3.6-2.6-6.4-6.1-6.4S2,4.5,2,8z M7,12.2H5.1v-8C5.8,4,6.9,3.9,8.2,3.9
			c1.5,0,2.2,0.2,2.8,0.6c0.4,0.3,0.8,1,0.8,1.8c0,0.9-0.7,1.6-1.7,1.8v0.1c0.8,0.3,1.2,0.9,1.5,1.9c0.2,1.2,0.4,1.7,0.6,2h-2
			c-0.2-0.3-0.4-1-0.6-1.9C9.3,9.3,8.9,9,7.8,9H7V12.2z M7,7.6h0.9c1,0,1.8-0.3,1.8-1.2c0-0.7-0.5-1.2-1.7-1.2c-0.5,0-0.8,0-1,0.1
			V7.6z"/>
	</g>
</g>
</svg>
