<?xml version="1.0" encoding="utf-8"?>
<!-- Generator: Adobe Illustrator 19.0.1, SVG Export Plug-In . SVG Version: 6.00 Build 0)  -->
<svg version="1.1" id="Layer_1" xmlns="http://www.w3.org/2000/svg" xmlns:xlink="http://www.w3.org/1999/xlink" x="0px" y="0px" viewBox="0 0 15.2 20" enable-background="new 0 0 15.2 20" xml:space="preserve">
	<path d="M7.6,0C3.4,0,0,3.4,0,7.6c0,1.3,0.3,2.5,0.9,3.6C3.7,16.8,7.6,20,7.6,20s3.9-3.1,6.7-8.7
	c0.6-1.1,0.9-2.3,0.9-3.6C15.2,3.4,11.8,0,7.6,0z M7.6,12.2C5.1,12.2,3,10.2,3,7.6C3,5.1,5.1,3,7.6,3c2.5,0,4.6,2.1,4.6,4.6
	C12.2,10.2,10.2,12.2,7.6,12.2z"/>
</svg>
