<?xml version="1.0" encoding="utf-8"?>
<!-- Generator: Adobe Illustrator 19.0.1, SVG Export Plug-In . SVG Version: 6.00 Build 0)  -->
<svg version="1.1" id="Слой_1" xmlns="http://www.w3.org/2000/svg" xmlns:xlink="http://www.w3.org/1999/xlink" x="0px" y="0px"
	 viewBox="-266 389.9 62 62" style="enable-background:new -266 389.9 62 62;" xml:space="preserve">
<style type="text/css">
	.st0{fill:none;stroke:#003353;stroke-width:2;}
	.st1{fill:#003353;}
	.st2{enable-background:new    ;}
</style>
<g>
	<circle class="st0" cx="-235" cy="420.9" r="30"/>
	<path class="st1" d="M-230,410.4l-9,5.5v-11L-230,410.4z"/>
	<g class="st2">
		<path class="st1" d="M-244.9,424.2h0.7l-2.5,10.7h-0.8l-2.5-10.7h0.7l1.7,7.5c0.1,0.6,0.2,1,0.3,1.3c0,0.3,0.1,0.6,0.1,1
			c0-0.3,0.1-0.6,0.1-0.8s0.1-0.5,0.1-0.7C-246.8,432.3-246.2,429.5-244.9,424.2z"/>
		<path class="st1" d="M-243,434.9v-10.7h0.7v10.7H-243z"/>
		<path class="st1" d="M-234.6,429.4c0,3.6-1.1,5.5-3.4,5.5h-1.9v-10.7h1.9c1.1,0,1.9,0.4,2.5,1.3
			C-234.9,426.4-234.6,427.7-234.6,429.4z M-235.4,429.5c0-1.5-0.2-2.7-0.7-3.5s-1.1-1.2-2-1.2h-1.2v9.4h1.1c0.9,0,1.6-0.4,2-1.2
			S-235.4,431-235.4,429.5z"/>
		<path class="st1" d="M-228.7,434.9h-3.9v-10.7h3.9v0.7h-3.2v4.1h3v0.7h-3v4.6h3.2V434.9z"/>
		<path class="st1" d="M-221,429.5c0,1.8-0.3,3.1-0.8,4.1c-0.5,1-1.3,1.4-2.3,1.4c-1,0-1.8-0.5-2.3-1.4c-0.5-1-0.8-2.3-0.8-4.1
			c0-1.8,0.3-3.2,0.8-4.1s1.3-1.4,2.3-1.4c1,0,1.8,0.5,2.3,1.4C-221.3,426.4-221,427.8-221,429.5z M-226.5,429.5
			c0,1.6,0.2,2.8,0.6,3.6c0.4,0.8,1,1.2,1.7,1.2c0.8,0,1.3-0.4,1.7-1.2c0.4-0.8,0.6-2,0.6-3.6c0-1.6-0.2-2.8-0.6-3.6
			c-0.4-0.8-1-1.2-1.7-1.2c-0.8,0-1.4,0.4-1.8,1.2C-226.3,426.8-226.5,428-226.5,429.5z"/>
	</g>
</g>
</svg>
