<?xml version="1.0" encoding="utf-8"?>
<!-- Generator: Adobe Illustrator 19.0.1, SVG Export Plug-In . SVG Version: 6.00 Build 0)  -->
<svg version="1.1" id="Слой_1" xmlns="http://www.w3.org/2000/svg" xmlns:xlink="http://www.w3.org/1999/xlink" x="0px" y="0px"
	 viewBox="-266 389.9 62 62" style="enable-background:new -266 389.9 62 62;" xml:space="preserve">
<style type="text/css">
	.st0{fill:none;stroke:#003353;stroke-width:2;}
	.st1{fill:#003353;}
	.st2{enable-background:new    ;}
</style>
<g>
	<path class="st0" d="M-235,390.9c16.6,0,30,13.4,30,30 M-235,450.9c-16.6,0-30-13.4-30-30"/>
	<path class="st1" d="M-243,389.9l11,0l-1.8,8L-243,389.9z"/>
	<path class="st1" d="M-229,449.9l-11,0l1.8-8L-229,449.9z"/>
	<g class="st2">
		<path class="st1" d="M-236.9,410.6c0,0.7-0.1,1.2-0.4,1.7c-0.3,0.5-0.7,0.8-1.3,1v0.1c0.6,0.1,1.1,0.4,1.4,0.9
			c0.3,0.5,0.5,1.1,0.5,1.8c0,0.9-0.2,1.7-0.7,2.2c-0.5,0.5-1.1,0.8-1.9,0.8c-0.8,0-1.5-0.1-2-0.4v-0.8c0.6,0.4,1.3,0.5,2,0.5
			c0.6,0,1.1-0.2,1.4-0.6c0.3-0.4,0.5-1,0.5-1.8c0-0.7-0.2-1.3-0.6-1.7s-1-0.6-1.7-0.6h-0.5V413h0.6c0.6,0,1.1-0.2,1.5-0.7
			c0.4-0.4,0.6-1,0.6-1.7c0-0.6-0.1-1.1-0.4-1.4s-0.7-0.5-1.2-0.5c-0.3,0-0.6,0.1-0.9,0.2s-0.6,0.3-0.9,0.6l-0.4-0.5
			c0.4-0.4,0.7-0.6,1.1-0.8c0.4-0.1,0.7-0.2,1.2-0.2c0.7,0,1.3,0.2,1.7,0.7C-237.1,409.2-236.9,409.8-236.9,410.6z"/>
		<path class="st1" d="M-229.5,413.4c0,3.6-1.1,5.5-3.4,5.5h-1.9v-10.7h1.9c1.1,0,1.9,0.4,2.5,1.3
			C-229.8,410.4-229.5,411.7-229.5,413.4z M-230.3,413.5c0-1.5-0.2-2.7-0.7-3.5s-1.1-1.2-2-1.2h-1.2v9.4h1.1c0.9,0,1.6-0.4,2-1.2
			S-230.3,415-230.3,413.5z"/>
	</g>
	<g class="st2">
		<path class="st1" d="M-245,434.9h-0.7v-10h-2.1v-0.7h5v0.7h-2.1V434.9z"/>
		<path class="st1" d="M-236.1,429.5c0,1.8-0.3,3.1-0.8,4.1c-0.5,1-1.3,1.4-2.3,1.4c-1,0-1.8-0.5-2.3-1.4c-0.5-1-0.8-2.3-0.8-4.1
			c0-1.8,0.3-3.2,0.8-4.1s1.3-1.4,2.3-1.4c1,0,1.8,0.5,2.3,1.4C-236.4,426.4-236.1,427.8-236.1,429.5z M-241.5,429.5
			c0,1.6,0.2,2.8,0.6,3.6c0.4,0.8,1,1.2,1.7,1.2c0.8,0,1.3-0.4,1.7-1.2c0.4-0.8,0.6-2,0.6-3.6c0-1.6-0.2-2.8-0.6-3.6
			c-0.4-0.8-1-1.2-1.7-1.2c-0.8,0-1.4,0.4-1.8,1.2C-241.3,426.8-241.5,428-241.5,429.5z"/>
		<path class="st1" d="M-229,424.2v7.2c0,2.4-0.9,3.6-2.6,3.6c-0.9,0-1.5-0.3-2-0.9c-0.5-0.6-0.7-1.5-0.7-2.7v-7.2h0.7v7.3
			c0,0.9,0.2,1.6,0.5,2.1c0.3,0.5,0.8,0.7,1.4,0.7c0.6,0,1.1-0.2,1.4-0.7c0.3-0.5,0.5-1.2,0.5-2.1v-7.3H-229z"/>
		<path class="st1" d="M-226,430.2v4.7h-0.7v-10.7h1.5c1,0,1.8,0.2,2.3,0.7c0.5,0.5,0.7,1.2,0.7,2.2c0,0.7-0.1,1.4-0.4,1.8
			c-0.3,0.5-0.7,0.8-1.3,1.1l2.1,4.8h-0.8l-2-4.7H-226z M-226,429.6h1c0.6,0,1.1-0.2,1.5-0.6s0.5-1,0.5-1.8c0-0.8-0.2-1.4-0.5-1.7
			c-0.4-0.4-0.9-0.5-1.7-0.5h-0.8V429.6z"/>
	</g>
</g>
</svg>
