<?xml version="1.0" encoding="utf-8"?>
<!-- Generator: Adobe Illustrator 19.0.1, SVG Export Plug-In . SVG Version: 6.00 Build 0)  -->
<svg version="1.1" id="Layer_1" xmlns="http://www.w3.org/2000/svg" xmlns:xlink="http://www.w3.org/1999/xlink" x="0px" y="0px"
	 viewBox="0 0 45.4 45.4" style="enable-background:new 0 0 45.4 45.4;" xml:space="preserve">
<style type="text/css">
	.st0{fill-rule:evenodd;clip-rule:evenodd;fill:#FFFFFF;}
</style>
<path class="st0" d="M22.7,0C10.2,0,0,10.2,0,22.7s10.2,22.7,22.7,22.7c12.5,0,22.7-10.2,22.7-22.7S35.2,0,22.7,0z M30.7,23.1
	c-1.7,7-13.3,10-18.6,2.7c2,1.9,5.6,2.1,7.8-0.2c-1.3,0.2-2.3-1.1-0.7-1.8c-1.5,0.2-2.3-0.6-2.6-1.3c0.3-0.4,0.7-0.5,1.5-0.6
	c-1.6-0.4-2.2-1.2-2.4-2.1c0.4-0.1,1-0.2,1.3-0.2c-1.4-0.7-1.9-1.8-1.8-2.7c2.5,0.9,4.1,1.7,5.4,2.4c0.5,0.3,1,0.7,1.6,1.3
	c0.8-2,1.7-4.1,3.3-5.1c0,0.2-0.2,0.4-0.3,0.6c0.5-0.4,1-0.7,1.6-0.8c-0.1,0.5-0.7,0.7-1.1,0.9c0.3-0.1,1.9-0.8,2.1-0.4
	c0.2,0.5-1.1,0.7-1.3,0.7c-0.2,0.1-0.3,0.1-0.5,0.2c2-0.2,3.9,1.5,4.5,3.5c0,0.1,0.1,0.3,0.1,0.5c0.7,0.3,2.1,0,2.5-0.3
	c-0.3,0.7-1.1,1.3-2.3,1.4c0.6,0.2,1.6,0.4,2.4,0.2C32.8,22.6,32,23.1,30.7,23.1z"/>
</svg>
