<?xml version="1.0" encoding="utf-8"?>
<!-- Generator: Adobe Illustrator 19.0.1, SVG Export Plug-In . SVG Version: 6.00 Build 0)  -->
<svg version="1.1" id="Layer_1" xmlns="http://www.w3.org/2000/svg" xmlns:xlink="http://www.w3.org/1999/xlink" x="0px" y="0px"
	 viewBox="0 0 45.4 45.4" style="enable-background:new 0 0 45.4 45.4;" xml:space="preserve">
<style type="text/css">
	.st0{fill:#FFFFFF;}
</style>
<g>
	<path class="st0" d="M26.1,24.8c-0.2,0-0.4,0.1-0.6,0.2c-0.2,0.1-0.3,0.2-0.4,0.4h0v-2.3h-1.5v9.2H25v-0.4h0
		c0.1,0.1,0.3,0.3,0.4,0.4c0.2,0.1,0.4,0.2,0.6,0.2c0.3,0,0.5-0.1,0.8-0.2c0.2-0.1,0.3-0.4,0.3-0.7v-5.8c0-0.3-0.1-0.5-0.3-0.7
		C26.6,24.9,26.4,24.8,26.1,24.8z M25.7,30.9c0,0.2,0,0.3-0.1,0.4c-0.1,0.1-0.2,0.1-0.2,0.1c-0.1,0-0.2,0-0.2-0.1
		c-0.1-0.1-0.1-0.2-0.1-0.4v-4.5c0-0.2,0-0.3,0.1-0.4c0.1-0.1,0.2-0.1,0.2-0.1c0.1,0,0.2,0,0.2,0.1c0.1,0.1,0.1,0.2,0.1,0.4V30.9z"
		/>
	<polygon class="st0" points="13.3,24.3 14.7,24.3 14.7,32.3 16.4,32.3 16.4,24.3 17.8,24.3 17.8,23.1 13.3,23.1 	"/>
	<path class="st0" d="M20.5,30.9c0,0.1,0,0.2-0.1,0.3c0,0.1-0.1,0.1-0.3,0.1c-0.2,0-0.2,0-0.3-0.1c0-0.1,0-0.2,0-0.3v-6h-1.5V31
		c0,0.2,0,0.4,0,0.5c0,0.2,0.1,0.3,0.1,0.4c0.1,0.1,0.2,0.2,0.3,0.3c0.2,0.1,0.4,0.1,0.7,0.1c0.2,0,0.4,0,0.6-0.1
		c0.2-0.1,0.3-0.2,0.4-0.4h0v0.4H22v-7.4h-1.5V30.9z"/>
	<path class="st0" d="M22.7,18.1c0.1,0,0.2,0,0.3-0.1c0.1,0,0.1-0.1,0.1-0.3v-5.1c0-0.2,0-0.3-0.1-0.3c-0.1,0-0.1-0.1-0.3-0.1
		c-0.1,0-0.2,0-0.3,0.1c-0.1,0-0.1,0.1-0.1,0.3v5.1c0,0.2,0,0.3,0.1,0.3C22.5,18.1,22.5,18.1,22.7,18.1z"/>
	<path class="st0" d="M22.7,0C10.2,0,0,10.2,0,22.7c0,12.5,10.2,22.7,22.7,22.7c12.5,0,22.7-10.2,22.7-22.7C45.4,10.2,35.2,0,22.7,0
		z M26.6,11.5H28v6c0,0.1,0,0.2,0,0.3c0,0.1,0.1,0.1,0.3,0.1c0.2,0,0.3,0,0.3-0.1c0-0.1,0.1-0.2,0.1-0.3v-6h1.5v7.5h-1.5v-0.4h0
		c-0.1,0.2-0.3,0.3-0.4,0.4C28.1,19,27.9,19,27.7,19c-0.3,0-0.5,0-0.7-0.1c-0.2-0.1-0.3-0.2-0.3-0.3c-0.1-0.1-0.1-0.3-0.1-0.4
		c0-0.2,0-0.4,0-0.6V11.5z M20.8,12.7c0-0.4,0.2-0.7,0.5-0.9c0.3-0.2,0.8-0.3,1.3-0.3c0.6,0,1,0.1,1.3,0.3c0.3,0.2,0.5,0.5,0.5,0.9
		v5.1c0,0.4-0.2,0.7-0.5,0.9c-0.3,0.2-0.8,0.3-1.3,0.3c-0.6,0-1-0.1-1.3-0.3c-0.3-0.2-0.5-0.5-0.5-0.9V12.7z M16.3,9.7l0.5,2
		c0.1,0.2,0.1,0.4,0.1,0.6c0,0.1,0.1,0.3,0.1,0.4c0,0.1,0,0.3,0.1,0.4c0,0.2,0,0.4,0.1,0.6h0c0-0.4,0.1-0.7,0.1-1
		c0-0.3,0.1-0.6,0.2-0.9L18,9.7h1.5l-1.7,5.7v3.5h-1.6v-3.5l-1.7-5.8H16.3z M36.2,30.8c0,2.2-1.8,3.9-3.9,3.9H13.1
		c-2.2,0-3.9-1.8-3.9-3.9v-5.6c0-2.2,1.8-3.9,3.9-3.9h19.2c2.2,0,3.9,1.8,3.9,3.9V30.8z"/>
	<path class="st0" d="M31.4,25.2C31,25,30.6,24.8,30,24.8c-0.6,0-1,0.1-1.3,0.3c-0.3,0.2-0.5,0.5-0.5,0.9v5.1c0,0.4,0.2,0.7,0.5,0.9
		c0.3,0.2,0.8,0.3,1.3,0.3c0.6,0,1-0.1,1.3-0.3c0.3-0.2,0.5-0.5,0.5-0.9v-1.8h-1.5v1.7c0,0.2,0,0.3-0.1,0.3c-0.1,0-0.1,0.1-0.3,0.1
		c-0.1,0-0.2,0-0.3-0.1c-0.1,0-0.1-0.1-0.1-0.3v-2.3h2.2v-2.7C31.9,25.7,31.7,25.4,31.4,25.2z M30.4,27.9h-0.7v-1.8
		c0-0.2,0-0.3,0.1-0.3c0.1,0,0.1-0.1,0.3-0.1c0.1,0,0.2,0,0.3,0.1c0.1,0,0.1,0.1,0.1,0.3V27.9z"/>
</g>
</svg>
